<?xml version="1.0" encoding="utf-8"?>
<!-- Generator: Adobe Illustrator 24.1.2, SVG Export Plug-In . SVG Version: 6.00 Build 0)  -->
<svg version="1.1" xmlns="http://www.w3.org/2000/svg" xmlns:xlink="http://www.w3.org/1999/xlink" x="0px" y="0px"
	 viewBox="0 0 175 125" style="enable-background:new 0 0 175 125;" xml:space="preserve">
<style type="text/css">
	.st0{display:none;}
	.st1{display:inline;}
	.st2{fill-rule:evenodd;clip-rule:evenodd;fill:#00A2D5;}
	.st3{fill-rule:evenodd;clip-rule:evenodd;fill:url(#XMLID_41_);}
	.st4{fill-rule:evenodd;clip-rule:evenodd;fill:url(#XMLID_65_);}
	.st5{fill-rule:evenodd;clip-rule:evenodd;fill:#004051;}
	.st6{fill-rule:evenodd;clip-rule:evenodd;fill:url(#XMLID_66_);}
	.st7{fill:#00283B;stroke:#00283B;stroke-width:5.670000e-02;stroke-miterlimit:10;}
	.st8{fill:#00283B;}
	.st9{fill:#00A2D5;}
	.st10{fill-rule:evenodd;clip-rule:evenodd;fill:url(#XMLID_67_);}
	.st11{fill-rule:evenodd;clip-rule:evenodd;fill:url(#XMLID_68_);}
	.st12{fill-rule:evenodd;clip-rule:evenodd;fill:url(#XMLID_69_);}
	.st13{fill-rule:evenodd;clip-rule:evenodd;fill:url(#XMLID_70_);}
	.st14{fill-rule:evenodd;clip-rule:evenodd;fill:url(#XMLID_71_);}
	.st15{fill-rule:evenodd;clip-rule:evenodd;fill:url(#XMLID_72_);}
	.st16{fill-rule:evenodd;clip-rule:evenodd;fill:url(#XMLID_73_);}
	.st17{fill-rule:evenodd;clip-rule:evenodd;fill:url(#XMLID_74_);}
	.st18{fill-rule:evenodd;clip-rule:evenodd;fill:url(#XMLID_75_);}
	.st19{fill-rule:evenodd;clip-rule:evenodd;fill:url(#XMLID_76_);}
	.st20{fill-rule:evenodd;clip-rule:evenodd;fill:url(#XMLID_77_);}
	.st21{fill-rule:evenodd;clip-rule:evenodd;fill:url(#XMLID_78_);}
	.st22{fill-rule:evenodd;clip-rule:evenodd;fill:url(#XMLID_79_);}
	.st23{fill-rule:evenodd;clip-rule:evenodd;fill:url(#XMLID_80_);}
	.st24{fill-rule:evenodd;clip-rule:evenodd;fill:url(#XMLID_81_);}
</style>
<g id="fr" class="st0">
</g>
<g id="Layer_6" class="st0">
</g>
<g id="Layer_3">
	<g id="XMLID_42_">
		<path id="XMLID_64_" class="st2" d="M38.3,8.3c0,0,13.6,9,32.4,11.8c0,0,15.9,3.4,21.9,4.1c0,0,20.8,2.6,25.2,10.5
			c0,0,4.4,5.5,6.2,15.4c0,0,1.4-1.6,1.7-5.5c0,0,0-5.2,6.1-5.1c0,0,1.7-0.1,2.5,2.7c0,0,0.5,2.2,3,3.6c0,0,0.2,0.6-0.9,0.8
			c0,0-0.3,0.5,0.3,0.8c0,0,0.3,0-0.4,0.5c0,0-0.1,0.2,0.5,0.2c0,0,0.3-0.1-0.2,0.5c0,0-0.2,0.3,0.7,0.4c0,0,0.3,1.1-1.5,1.4
			c0,0-4.6-0.1-6.4,5.4c0,0-0.9,3.3-1,5.6c0,0,0.6,4.4-7.8,4.9c0,0-4.5-0.2-15.8,3.8c0,0-12.8,4-19.8,5.5c0,0-4.9,2.2-3.1-1.2
			c0,0,0.5-0.7,0.3-4.3c0,0-5.1-0.1-6.2-0.3c0,0-1.5,0.3-3.6-0.9c0,0-8.3-3.3-12.7-4c0,0-4.1-1-6.4-1.3c0,0-4.8-0.3-7.1-1.7
			c0,0-0.9-0.9,0.9-1c0,0,3.7,0.8,6-0.3c0,0,1.7-1.8,3-0.9c0,0,1.2,1.8,2.7,2.6l8.2,0.4c0,0,0.3-0.1-1-0.7l-6.6-3.6
			c0,0-0.9-0.7-4.4-1l-4.4-0.4c0,0-1.1-0.3-0.2-0.9c0,0,2.2,0.3,5.7-1.5c0,0,3-2.7,3.7-0.6c0,0,0,2.3,3.6,3.3l9.2,3.1
			c0,0,1.9,0.8,3.1,2.2c0,0,1.4,1.5,5,1.1h0.6c0,0-0.5-0.9-0.6-2.2c0,0-0.7-3.5,2.1-2.9l17.6,3.2c0,0,4.8,1.3,9-0.4c0,0,3-1,3.3-1.2
			c0,0-4,1.2-8.1,0.9c0,0-8.6,0.6-25.3-11.1c0,0-14.6-8.6-17.8-12.5c0,0,13.6,6.2,18.1,7c0,0,9.7,3.4,20.4,4.8c0,0,6.1,1.4,13.3-0.9
			c0,0-7.3,1.1-14.3-0.2c0,0-10.3-1.2-25.2-7.5c0,0-11.6-4.9-21.9-13.6c0,0-3.6-3.1-6.7-7.3c0,0,10,6.9,26.1,10.9
			c0,0,7.4,2.4,20.3,4.8c0,0,4.5,1,10.1,0.7c0,0-8.6-1.5-11.4-2.2c-2.8-0.6-8.9-1.8-16.8-4.2c0,0-6.1-1.1-21-9.2
			C52.8,20.4,42.1,14.4,38.3,8.3z"/>
		<linearGradient id="XMLID_41_" gradientUnits="userSpaceOnUse" x1="55.3324" y1="41.0853" x2="107.0393" y2="25.7106">
			<stop  offset="0" style="stop-color:#00283B"/>
			<stop  offset="0.54" style="stop-color:#00273A"/>
			<stop  offset="0.8" style="stop-color:#00A2D5"/>
			<stop  offset="1" style="stop-color:#00A2D5"/>
		</linearGradient>
		<path id="XMLID_63_" class="st3" d="M113.5,48.1c0,0-7.3,1.1-14.3-0.2c0,0-10.3-1.2-25.2-7.5c0,0-11.6-4.9-21.9-13.6
			c0,0-3.6-3.1-6.7-7.3c0,0,10,6.9,26.1,10.9c0,0,7.4,2.4,20.3,4.8c0,0,4.5,1,10.1,0.7c5.5-0.3,8.1,1.1,12,4.2
			C117.9,43.4,113.5,48.1,113.5,48.1z"/>
		<linearGradient id="XMLID_65_" gradientUnits="userSpaceOnUse" x1="50.1238" y1="32.4194" x2="107.3934" y2="13.7047">
			<stop  offset="0" style="stop-color:#00283B"/>
			<stop  offset="0.37" style="stop-color:#00283B"/>
			<stop  offset="0.72" style="stop-color:#00A2D5"/>
			<stop  offset="1" style="stop-color:#00A2D5"/>
		</linearGradient>
		<path id="XMLID_62_" class="st4" d="M102,36c0,0-8.6-1.5-11.4-2.2c-2.8-0.6-8.9-1.8-16.8-4.2c0,0-6.1-1.1-21-9.2
			c0,0-10.7-6-14.5-12.2c0,0,13.6,9,32.4,11.8c0,0,15.9,3.4,21.9,4.1c0,0,20.8,2.6,25.2,10.5c4.4,7.8-10.4,1.5-10.4,1.5
			S105.7,35.1,102,36z"/>
		<path id="XMLID_59_" class="st5" d="M128.8,35.5c-3.2,0.4-5.8,1.1-5.7,1.5c0.1,0.5,2.7,0.5,5.9,0.1c3.2-0.4,5.8-1.1,5.7-1.5
			C134.6,35.1,132,35.1,128.8,35.5L128.8,35.5z M128.9,36.8L128.9,36.8c-2.5,0.3-4.5,0.3-4.5,0.1c0-0.2,2-0.7,4.4-1
			c2.5-0.3,4.5-0.3,4.5-0.1C133.3,36.1,131.3,36.5,128.9,36.8z"/>
		<linearGradient id="XMLID_66_" gradientUnits="userSpaceOnUse" x1="73.5759" y1="55.6188" x2="110.4883" y2="39.4769">
			<stop  offset="0" style="stop-color:#002637"/>
			<stop  offset="0.5" style="stop-color:#002E42"/>
			<stop  offset="0.82" style="stop-color:#00A2D5"/>
			<stop  offset="1" style="stop-color:#00A2D5"/>
		</linearGradient>
		<path id="XMLID_58_" class="st6" d="M112.9,60c0,0-4,1.2-8.1,0.9c0,0-8.6,0.6-25.3-11.1c0,0-14.6-8.6-17.8-12.5
			c0,0,13.6,6.2,18.1,7c0,0,9.7,3.4,20.4,4.8c0,0,6.1,1.4,13.3-0.9c7.3-2.3,6.7,8.8,6.7,8.8S119,61.6,112.9,60z"/>
	</g>
	<g>
		<path class="st7" d="M21.1,116.7c-0.5,0-1-0.1-1.4-0.3c-0.4-0.2-0.8-0.5-1.1-0.8l1.1-0.7c0.1,0.2,0.3,0.4,0.5,0.5
			c0.2,0.1,0.5,0.2,0.8,0.2c0.5,0,0.9-0.2,1.2-0.5c0.3-0.3,0.4-0.7,0.4-1.3v-6.2h1.4v6.2c0,0.9-0.3,1.7-0.8,2.2
			C22.8,116.4,22.1,116.7,21.1,116.7z"/>
		<path class="st7" d="M29.1,116.7c-0.9,0-1.6-0.2-2.1-0.7c-0.5-0.5-0.7-1.2-0.7-2.1v-1.1c0-0.9,0.2-1.6,0.7-2.1
			c0.5-0.5,1.2-0.7,2.1-0.7c0.9,0,1.6,0.2,2.1,0.7c0.5,0.5,0.7,1.2,0.7,2.1v1.1c0,0.9-0.2,1.6-0.7,2.1
			C30.7,116.4,30,116.7,29.1,116.7z M29.1,115.5c0.5,0,0.8-0.1,1.1-0.4c0.3-0.3,0.4-0.7,0.4-1.2v-1.1c0-0.5-0.1-0.9-0.4-1.2
			c-0.3-0.3-0.6-0.4-1.1-0.4c-0.5,0-0.8,0.1-1.1,0.4s-0.4,0.7-0.4,1.2v1.1c0,0.5,0.1,0.9,0.4,1.2S28.6,115.5,29.1,115.5z"/>
		<path class="st7" d="M33.9,116.6v-9h1.4v9H33.9z M37,116.7c-0.4,0-0.8-0.1-1.1-0.3c-0.3-0.2-0.6-0.5-0.7-0.8l0.1-1.3
			c0,0.3,0.1,0.5,0.2,0.7s0.3,0.3,0.5,0.4c0.2,0.1,0.4,0.2,0.7,0.2c0.5,0,0.8-0.1,1-0.4c0.2-0.3,0.4-0.6,0.4-1.1v-1.4
			c0-0.5-0.1-0.8-0.4-1.1c-0.2-0.3-0.6-0.4-1-0.4c-0.3,0-0.5,0-0.7,0.1c-0.2,0.1-0.4,0.2-0.5,0.4c-0.1,0.2-0.2,0.4-0.2,0.7l-0.1-1.2
			c0.2-0.4,0.5-0.7,0.8-0.9c0.3-0.2,0.7-0.3,1.1-0.3c0.7,0,1.3,0.2,1.7,0.7c0.4,0.5,0.6,1.1,0.6,1.9v1.4c0,0.8-0.2,1.5-0.6,1.9
			C38.3,116.4,37.7,116.7,37,116.7z"/>
		<path class="st7" d="M47.9,112.6c-0.6,0-1,0.1-1.3,0.4c-0.3,0.3-0.5,0.6-0.5,1.1c0,0.5,0.2,0.8,0.5,1.1c0.3,0.3,0.8,0.4,1.4,0.4
			c0.8,0,1.5-0.3,2-0.9c0.5-0.6,0.7-1.5,0.7-2.6h1.3c0,1-0.2,1.8-0.5,2.5c-0.3,0.7-0.8,1.2-1.5,1.6c-0.6,0.4-1.4,0.6-2.3,0.6
			c-0.9,0-1.6-0.2-2.1-0.7c-0.5-0.5-0.8-1.1-0.8-1.9c0-0.7,0.2-1.3,0.7-1.8c0.4-0.4,1.1-0.7,1.8-0.8L47.9,112.6z M50.9,116.6
			l-3.7-3.6c-0.5-0.4-0.8-0.9-1.1-1.4c-0.3-0.5-0.4-1-0.4-1.6c0-0.8,0.2-1.4,0.7-1.8c0.5-0.4,1.1-0.6,1.9-0.6c0.8,0,1.5,0.2,1.9,0.6
			c0.5,0.4,0.7,1,0.7,1.8v0.1h-1.4v-0.1c0-0.4-0.1-0.7-0.3-0.9c-0.2-0.2-0.5-0.3-0.9-0.3c-0.4,0-0.7,0.1-0.9,0.3
			c-0.2,0.2-0.3,0.5-0.3,0.9c0,0.4,0.1,0.7,0.3,1.1s0.5,0.8,0.8,1.1l4.4,4.4H50.9z"/>
		<path class="st7" d="M57.7,116.6v-9h1.4v9H57.7z M58.4,108.7v-1.2H64v1.2H58.4z M58.4,112.7v-1.2h4.8v1.2H58.4z M58.4,116.6v-1.2
			H64v1.2H58.4z"/>
		<path class="st7" d="M68,116.7c-0.8,0-1.4-0.2-1.8-0.7c-0.4-0.5-0.6-1.1-0.6-1.9v-1.4c0-0.8,0.2-1.5,0.6-1.9
			c0.4-0.5,1-0.7,1.7-0.7c0.4,0,0.8,0.1,1.1,0.3c0.3,0.2,0.6,0.5,0.8,0.8l-0.1,1.3c0-0.3-0.1-0.5-0.2-0.7s-0.3-0.3-0.5-0.4
			c-0.2-0.1-0.4-0.2-0.7-0.2c-0.5,0-0.8,0.1-1,0.4c-0.2,0.3-0.4,0.6-0.4,1.1v1.4c0,0.5,0.1,0.8,0.4,1.1c0.2,0.3,0.6,0.4,1,0.4
			c0.3,0,0.5-0.1,0.7-0.2c0.2-0.1,0.4-0.3,0.5-0.5c0.1-0.2,0.2-0.4,0.2-0.7l0.1,1.4c-0.1,0.3-0.3,0.6-0.6,0.8
			C68.9,116.6,68.5,116.7,68,116.7z M69.7,116.6v-9h1.4v9H69.7z"/>
		<path class="st7" d="M74.5,110.1v3.9c0,0.5,0.1,0.8,0.4,1s0.6,0.4,1,0.4c0.4,0,0.8-0.1,1-0.3c0.2-0.2,0.4-0.5,0.4-0.9l0.1,1.3
			c-0.1,0.3-0.3,0.6-0.7,0.8c-0.3,0.2-0.7,0.3-1.2,0.3c-0.8,0-1.4-0.2-1.8-0.7c-0.4-0.5-0.6-1.1-0.6-1.9v-3.9H74.5z M77.4,116.6
			v-6.5h1.4v6.5H77.4z"/>
		<path class="st7" d="M83.6,116.7c-1,0-1.7-0.2-2.2-0.7c-0.5-0.5-0.8-1.2-0.8-2.1v-1.1c0-0.9,0.3-1.6,0.8-2
			c0.5-0.5,1.3-0.7,2.2-0.7c0.5,0,1,0.1,1.5,0.3c0.4,0.2,0.8,0.4,1,0.8l-1,0.8c-0.2-0.2-0.4-0.4-0.7-0.5c-0.3-0.1-0.5-0.2-0.8-0.2
			c-0.5,0-0.9,0.1-1.2,0.4c-0.3,0.3-0.4,0.7-0.4,1.2v1.1c0,0.5,0.1,0.9,0.4,1.2c0.3,0.3,0.7,0.4,1.2,0.4c0.3,0,0.6-0.1,0.8-0.2
			c0.3-0.1,0.5-0.3,0.7-0.5l1,0.9c-0.3,0.3-0.6,0.6-1,0.7C84.6,116.6,84.1,116.7,83.6,116.7z"/>
		<path class="st7" d="M89.8,116.7c-0.9,0-1.5-0.2-1.9-0.5s-0.6-0.8-0.6-1.5c0-0.6,0.2-1.1,0.6-1.4c0.4-0.3,1-0.5,1.8-0.5h2l0.1,1
			h-2.1c-0.4,0-0.6,0.1-0.8,0.2c-0.2,0.1-0.3,0.4-0.3,0.7c0,0.3,0.1,0.6,0.4,0.7c0.2,0.2,0.6,0.2,1.1,0.2c0.5,0,0.9-0.1,1.2-0.2
			c0.3-0.1,0.4-0.3,0.4-0.5l0.1,0.9c-0.1,0.2-0.3,0.3-0.4,0.4c-0.2,0.1-0.4,0.2-0.6,0.3C90.4,116.6,90.1,116.7,89.8,116.7z
			 M91.5,116.6v-4.1c0-0.4-0.1-0.8-0.4-1c-0.2-0.2-0.6-0.4-1-0.4c-0.3,0-0.5,0-0.8,0.1s-0.5,0.2-0.7,0.3l-1-0.6
			c0.3-0.3,0.6-0.5,1-0.7c0.4-0.2,0.9-0.2,1.4-0.2c0.9,0,1.5,0.2,2,0.6c0.5,0.4,0.7,1,0.7,1.8v4.1H91.5z"/>
		<path class="st7" d="M94.4,111.3v-1.1h3.1v1.1H94.4z M96.7,116.6c-0.6,0-1-0.1-1.2-0.4c-0.3-0.3-0.4-0.7-0.4-1.3v-6.7h1.4v6.7
			c0,0.2,0,0.3,0.1,0.4c0.1,0.1,0.2,0.1,0.3,0.1h0.7v1.2H96.7z"/>
		<path class="st7" d="M99.4,108.8v-1.3h1.4v1.3H99.4z M99.4,116.6v-6.5h1.4v6.5H99.4z"/>
		<path class="st7" d="M105.5,116.7c-0.9,0-1.6-0.2-2.1-0.7c-0.5-0.5-0.7-1.2-0.7-2.1v-1.1c0-0.9,0.2-1.6,0.7-2.1
			c0.5-0.5,1.2-0.7,2.1-0.7c0.9,0,1.6,0.2,2.1,0.7c0.5,0.5,0.7,1.2,0.7,2.1v1.1c0,0.9-0.3,1.6-0.7,2.1S106.4,116.7,105.5,116.7z
			 M105.5,115.5c0.5,0,0.8-0.1,1.1-0.4c0.3-0.3,0.4-0.7,0.4-1.2v-1.1c0-0.5-0.1-0.9-0.4-1.2c-0.3-0.3-0.6-0.4-1.1-0.4
			c-0.5,0-0.8,0.1-1.1,0.4s-0.4,0.7-0.4,1.2v1.1c0,0.5,0.1,0.9,0.4,1.2S105,115.5,105.5,115.5z"/>
		<path class="st7" d="M110.3,116.6v-6.5h1.4v6.5H110.3z M114.5,116.6v-3.9c0-0.5-0.1-0.8-0.4-1.1c-0.3-0.2-0.6-0.4-1.1-0.4
			c-0.4,0-0.8,0.1-1,0.3c-0.2,0.2-0.4,0.5-0.4,0.9l-0.1-1.2c0.2-0.4,0.5-0.7,0.8-0.9c0.3-0.2,0.7-0.3,1.1-0.3c0.8,0,1.3,0.2,1.7,0.7
			c0.4,0.5,0.6,1.1,0.6,1.9v3.9H114.5z"/>
		<path class="st7" d="M121.7,116.6v-9h1.4v9H121.7z M122.4,113.1v-1.2h3.1c0.4,0,0.8-0.1,1.1-0.4c0.3-0.3,0.4-0.7,0.4-1.1
			c0-0.5-0.1-0.9-0.4-1.1c-0.3-0.3-0.6-0.4-1.1-0.4h-3.1v-1.2h3.1c0.6,0,1.1,0.1,1.5,0.3c0.4,0.2,0.8,0.6,1,1
			c0.2,0.4,0.4,0.9,0.4,1.5c0,0.6-0.1,1-0.4,1.5s-0.6,0.7-1,1c-0.4,0.2-0.9,0.3-1.5,0.3H122.4z"/>
		<path class="st7" d="M132.2,116.7c-0.9,0-1.6-0.2-2.1-0.7c-0.5-0.5-0.7-1.2-0.7-2.1v-1.1c0-0.9,0.2-1.6,0.7-2.1
			c0.5-0.5,1.2-0.7,2.1-0.7s1.6,0.2,2.1,0.7c0.5,0.5,0.7,1.2,0.7,2.1v1.1c0,0.9-0.3,1.6-0.7,2.1
			C133.8,116.4,133.1,116.7,132.2,116.7z M132.2,115.5c0.5,0,0.8-0.1,1.1-0.4c0.3-0.3,0.4-0.7,0.4-1.2v-1.1c0-0.5-0.1-0.9-0.4-1.2
			c-0.3-0.3-0.6-0.4-1.1-0.4c-0.5,0-0.8,0.1-1.1,0.4s-0.4,0.7-0.4,1.2v1.1c0,0.5,0.1,0.9,0.4,1.2S131.7,115.5,132.2,115.5z"/>
		<path class="st7" d="M137,116.6v-6.5h1.4v6.5H137z M140.8,111.7c-0.1-0.1-0.3-0.2-0.5-0.3c-0.2-0.1-0.4-0.1-0.6-0.1
			c-0.4,0-0.8,0.1-1,0.3c-0.2,0.2-0.4,0.5-0.4,0.9l-0.1-1.2c0.2-0.4,0.5-0.7,0.8-0.9c0.3-0.2,0.7-0.3,1.1-0.3c0.3,0,0.6,0,0.9,0.1
			c0.3,0.1,0.5,0.2,0.7,0.4L140.8,111.7z"/>
		<path class="st7" d="M142.3,111.3v-1.1h3.1v1.1H142.3z M144.6,116.6c-0.6,0-1-0.1-1.2-0.4c-0.3-0.3-0.4-0.7-0.4-1.3v-6.7h1.4v6.7
			c0,0.2,0,0.3,0.1,0.4c0.1,0.1,0.2,0.1,0.3,0.1h0.7v1.2H144.6z"/>
		<path class="st7" d="M149.5,116.7c-0.9,0-1.5-0.2-1.9-0.5c-0.4-0.3-0.6-0.8-0.6-1.5c0-0.6,0.2-1.1,0.6-1.4c0.4-0.3,1-0.5,1.8-0.5
			h2l0.1,1h-2.1c-0.4,0-0.6,0.1-0.8,0.2c-0.2,0.1-0.3,0.4-0.3,0.7c0,0.3,0.1,0.6,0.4,0.7c0.2,0.2,0.6,0.2,1.1,0.2
			c0.5,0,0.9-0.1,1.2-0.2c0.3-0.1,0.4-0.3,0.4-0.5l0.1,0.9c-0.1,0.2-0.3,0.3-0.4,0.4c-0.2,0.1-0.4,0.2-0.6,0.3
			C150,116.6,149.8,116.7,149.5,116.7z M151.2,116.6v-4.1c0-0.4-0.1-0.8-0.4-1c-0.2-0.2-0.6-0.4-1-0.4c-0.3,0-0.5,0-0.8,0.1
			s-0.5,0.2-0.7,0.3l-1-0.6c0.3-0.3,0.6-0.5,1-0.7c0.4-0.2,0.9-0.2,1.4-0.2c0.9,0,1.5,0.2,2,0.6c0.5,0.4,0.7,1,0.7,1.8v4.1H151.2z"
			/>
		<path class="st7" d="M155.9,107.5v7.4c0,0.2,0,0.3,0.1,0.4c0.1,0.1,0.2,0.1,0.3,0.1h0.6v1.2h-0.8c-0.5,0-0.9-0.1-1.2-0.4
			c-0.3-0.3-0.4-0.7-0.4-1.3v-7.4H155.9z"/>
	</g>
	<g>
		<path class="st8" d="M13.3,99.5l-0.7-2.4H7.8l-0.7,2.4H3.5l4.7-13.8h3.8l4.7,13.8H13.3z M10.2,89.6l-1.5,4.7h3L10.2,89.6z"/>
		<path class="st8" d="M21.3,99.5h-3.2V89.4c1.4-0.4,3-0.6,4.8-0.6h0.7c2.6,0,3.9,1.2,3.9,3.7v7h-3.2v-6.6c0-0.9-0.4-1.3-1.3-1.3
			h-0.4c-0.3,0-0.8,0-1.2,0.1V99.5z"/>
		<path class="st8" d="M35.7,99.5L35.7,99.5c-0.5,0-1.1,0-1.7,0h-0.7c-2.6,0-3.9-1.2-3.9-3.7v-3.3c0-2.5,1.3-3.7,3.9-3.7h0.7
			c1.8,0,3.4,0.2,4.8,0.6v10.1c0,1.3-0.3,2.2-1,2.9c-0.7,0.6-1.7,0.9-3.1,0.9h-0.6c-1.5,0-2.8-0.1-3.8-0.3v-2.3h4
			c0.4,0,0.8-0.1,1-0.3C35.6,100.3,35.7,99.9,35.7,99.5z M32.7,92.8v2.7c0,0.9,0.4,1.3,1.3,1.3h0.7c0.4,0,0.7,0,1-0.1v-5.1
			c-0.4-0.1-0.8-0.1-1.2-0.1H34C33.1,91.5,32.7,92,32.7,92.8z"/>
		<path class="st8" d="M50.3,92.7v2.7h-6.2v0.6c0,0.5,0.1,0.9,0.3,1.1c0.2,0.2,0.5,0.3,1,0.3h4.4v2.1c-1.2,0.2-2.5,0.3-4,0.3h-0.7
			c-1.5,0-2.5-0.3-3.2-1c-0.7-0.6-1-1.6-1-2.9v-3.2c0-1.3,0.3-2.2,1-2.9c0.7-0.6,1.7-1,3.2-1h1c1.5,0,2.5,0.3,3.2,1
			C50,90.4,50.3,91.4,50.3,92.7z M44.1,92.4v0.8h3v-0.5c0-0.9-0.4-1.4-1.2-1.4h-0.7c-0.4,0-0.7,0.1-0.9,0.3
			C44.2,91.7,44.1,92,44.1,92.4z"/>
		<path class="st8" d="M52.4,85.3h3.2v14.2h-3.2V85.3z"/>
		<path class="st8" d="M64.5,99.7h-0.5c-1.1,0-2.2-0.1-3-0.4v-2.5H64c1.2,0,1.8-0.6,1.8-1.9v-9.3h3.4V95c0,1.6-0.4,2.8-1.1,3.6
			C67.4,99.3,66.2,99.7,64.5,99.7z"/>
		<path class="st8" d="M71.4,95.8v-3.2c0-1.3,0.3-2.2,1-2.9c0.7-0.6,1.7-1,3.2-1h1.5c1.5,0,2.5,0.3,3.2,1c0.7,0.6,1,1.6,1,2.9v3.2
			c0,1.3-0.3,2.2-1,2.9c-0.7,0.6-1.7,1-3.2,1h-1.5c-1.4,0-2.5-0.3-3.2-1C71.8,98.1,71.4,97.1,71.4,95.8z M78.1,95.7V93
			c0-0.6-0.1-1-0.3-1.2c-0.2-0.2-0.5-0.4-1-0.4h-0.8c-0.5,0-0.8,0.1-1,0.4c-0.2,0.2-0.3,0.7-0.3,1.2v2.5c0,0.6,0.1,1,0.3,1.2
			c0.2,0.2,0.5,0.4,1,0.4h0.8c0.5,0,0.8-0.1,1-0.3C78,96.6,78.1,96.2,78.1,95.7z"/>
		<path class="st8" d="M86.5,85.3V89c0.7-0.1,1.3-0.2,1.7-0.2h0.6c2.6,0,3.9,1.2,3.9,3.7V96c0,2.5-1.3,3.7-3.9,3.7h-0.7
			c-1.8,0-3.4-0.2-4.8-0.6V85.3H86.5z M89.5,95.7v-2.5c0-0.6-0.1-1-0.3-1.3c-0.2-0.3-0.5-0.4-1-0.4h-0.4c-0.5,0-0.9,0-1.3,0.1v5.2
			c0.3,0.1,0.7,0.1,1.2,0.1h0.5C89.1,97,89.5,96.5,89.5,95.7z"/>
		<path class="st8" d="M98.4,92.8l2.5,0.4c1.5,0.2,2.3,1.3,2.3,3v0.4c0,1-0.3,1.8-0.8,2.3c-0.5,0.5-1.4,0.8-2.7,0.8h-1.2
			c-1.2,0-2.3-0.1-3.5-0.3v-2.2h4.2c0.5,0,0.8-0.2,0.8-0.6v-0.3c0-0.4-0.2-0.6-0.7-0.7l-2.5-0.4c-1.5-0.2-2.3-1.2-2.3-3v-0.3
			c0-1,0.3-1.7,0.8-2.3c0.5-0.5,1.4-0.8,2.7-0.8h1c1.2,0,2.4,0.1,3.4,0.3v2.2h-4c-0.5,0-0.7,0.2-0.7,0.6v0.3
			C97.7,92.5,98,92.8,98.4,92.8z"/>
		<path class="st8" d="M112.6,99.5h-3.4V85.7h9.4v2.8h-6v2.9h5.6v2.8h-5.6V99.5z"/>
		<path class="st8" d="M124.2,88.8h0.4c1.2,0,2.3,0.1,3.3,0.3v2.3h-3c-0.8,0-1.2,0.4-1.2,1.2v6.9h-3.2v-7
			C120.4,90,121.7,88.8,124.2,88.8z"/>
		<path class="st8" d="M138.4,92.5v6.7c-1.4,0.3-3,0.4-4.7,0.4h-1c-1.1,0-2-0.3-2.6-0.8c-0.6-0.5-0.9-1.2-0.9-2.2V96
			c0-1,0.3-1.7,0.9-2.2c0.6-0.5,1.5-0.8,2.6-0.8h0.7c0.6,0,1.2,0,1.9,0.1v-0.7c0-0.8-0.4-1.3-1.3-1.3H130v-2.1
			c1.2-0.2,2.6-0.3,4-0.3h0.5C137.1,88.8,138.4,90,138.4,92.5z M134,95.2h-0.6c-0.7,0-1,0.3-1,0.9v0.3c0,0.6,0.3,0.9,1,0.9h0.7
			c0.5,0,0.9,0,1.1-0.1v-1.9C134.9,95.3,134.5,95.2,134,95.2z"/>
		<path class="st8" d="M143.9,99.5h-3.2V89.4c1.4-0.4,3-0.6,4.8-0.6h0.7c2.6,0,3.9,1.2,3.9,3.7v7h-3.2v-6.6c0-0.9-0.4-1.3-1.3-1.3
			h-0.4c-0.3,0-0.8,0-1.2,0.1V99.5z"/>
		<path class="st8" d="M156.6,97.1h3.7v2.3c-1.1,0.2-2.2,0.3-3.2,0.3h-0.8c-1.4,0-2.5-0.3-3.2-1c-0.7-0.6-1-1.6-1-2.9v-3.2
			c0-1.3,0.3-2.2,1-2.9c0.7-0.6,1.7-1,3.2-1h0.8c1.1,0,2.2,0.1,3.2,0.3v2.3h-3.6c-0.5,0-0.8,0.1-1,0.3c-0.2,0.2-0.3,0.6-0.3,1v2.9
			c0,0.5,0.1,0.9,0.3,1.1C155.8,97,156.2,97.1,156.6,97.1z"/>
		<path class="st8" d="M171.5,92.7v2.7h-6.2v0.6c0,0.5,0.1,0.9,0.3,1.1c0.2,0.2,0.5,0.3,1,0.3h4.4v2.1c-1.2,0.2-2.5,0.3-4,0.3h-0.7
			c-1.5,0-2.5-0.3-3.2-1c-0.7-0.6-1-1.6-1-2.9v-3.2c0-1.3,0.3-2.2,1-2.9c0.7-0.6,1.7-1,3.2-1h1c1.5,0,2.5,0.3,3.2,1
			C171.1,90.4,171.5,91.4,171.5,92.7z M165.3,92.4v0.8h3v-0.5c0-0.9-0.4-1.4-1.2-1.4h-0.7c-0.4,0-0.7,0.1-0.9,0.3
			C165.4,91.7,165.3,92,165.3,92.4z"/>
	</g>
</g>
</svg>
