<?xml version="1.0" encoding="utf-8"?>
<!-- Generator: Adobe Illustrator 24.1.2, SVG Export Plug-In . SVG Version: 6.00 Build 0)  -->
<svg version="1.1" xmlns="http://www.w3.org/2000/svg" xmlns:xlink="http://www.w3.org/1999/xlink" x="0px" y="0px"
	 viewBox="0 0 175 125" style="enable-background:new 0 0 175 125;" xml:space="preserve">
<style type="text/css">
	.st0{display:none;}
	.st1{display:inline;}
	.st2{fill-rule:evenodd;clip-rule:evenodd;fill:#00A2D5;}
	.st3{fill-rule:evenodd;clip-rule:evenodd;fill:url(#XMLID_41_);}
	.st4{fill-rule:evenodd;clip-rule:evenodd;fill:url(#XMLID_65_);}
	.st5{fill-rule:evenodd;clip-rule:evenodd;fill:#004051;}
	.st6{fill-rule:evenodd;clip-rule:evenodd;fill:url(#XMLID_66_);}
	.st7{fill:#00283B;stroke:#00283B;stroke-width:5.670000e-02;stroke-miterlimit:10;}
	.st8{fill:#00283B;}
	.st9{fill:#00A2D5;}
	.st10{fill-rule:evenodd;clip-rule:evenodd;fill:url(#XMLID_67_);}
	.st11{fill-rule:evenodd;clip-rule:evenodd;fill:url(#XMLID_68_);}
	.st12{fill-rule:evenodd;clip-rule:evenodd;fill:url(#XMLID_69_);}
	.st13{fill-rule:evenodd;clip-rule:evenodd;fill:url(#XMLID_70_);}
	.st14{fill-rule:evenodd;clip-rule:evenodd;fill:url(#XMLID_71_);}
	.st15{fill-rule:evenodd;clip-rule:evenodd;fill:url(#XMLID_72_);}
	.st16{fill-rule:evenodd;clip-rule:evenodd;fill:url(#XMLID_73_);}
	.st17{fill-rule:evenodd;clip-rule:evenodd;fill:url(#XMLID_74_);}
	.st18{fill-rule:evenodd;clip-rule:evenodd;fill:url(#XMLID_75_);}
	.st19{fill-rule:evenodd;clip-rule:evenodd;fill:url(#XMLID_76_);}
	.st20{fill-rule:evenodd;clip-rule:evenodd;fill:url(#XMLID_77_);}
	.st21{fill-rule:evenodd;clip-rule:evenodd;fill:url(#XMLID_78_);}
	.st22{fill-rule:evenodd;clip-rule:evenodd;fill:url(#XMLID_79_);}
	.st23{fill-rule:evenodd;clip-rule:evenodd;fill:url(#XMLID_80_);}
	.st24{fill-rule:evenodd;clip-rule:evenodd;fill:url(#XMLID_81_);}
</style>
<g id="fr" class="st0">
	<g id="XMLID_15_" class="st1">
		<g id="XMLID_17_">
			<path id="XMLID_47_" class="st2" d="M-87.6-79.7c0,0,25.6,17.1,61.3,22.2c0,0,30,6.4,41.4,7.7c0,0,39.3,4.9,47.6,19.7
				c0,0,8.4,10.3,11.8,29.2c0,0,2.6-3,3.2-10.3c0,0,0-9.9,11.6-9.7c0,0,3.2-0.2,4.7,5.2c0,0,0.9,4.2,5.7,6.8c0,0,0.3,1.2-1.6,1.5
				c0,0-0.6,0.9,0.5,1.4c0,0,0.6-0.1-0.8,0.9c0,0-0.2,0.4,0.9,0.3c0,0,0.6-0.2-0.3,0.9c0,0-0.3,0.6,1.4,0.8c0,0,0.6,2.1-2.9,2.6
				c0,0-8.6-0.2-12.2,10.2c0,0-1.7,6.3-1.9,10.6c0,0,1.1,8.4-14.8,9.3c0,0-8.4-0.3-29.8,7.2c0,0-24.3,7.6-37.4,10.3
				c0,0-9.3,4.1-5.8-2.4c0,0,1-1.4,0.5-8.2c0,0-9.6-0.1-11.8-0.5c0,0-2.8,0.5-6.9-1.6c0,0-15.8-6.2-23.9-7.5c0,0-7.8-1.9-12-2.5
				c0,0-9-0.5-13.4-3.2c0,0-1.6-1.7,1.7-1.8c0,0,7.1,1.5,11.4-0.6c0,0,3.2-3.4,5.7-1.7c0,0,2.4,3.4,5.2,4.9l15.5,0.8
				c0,0,0.6-0.2-1.8-1.4l-12.6-6.9c0,0-1.7-1.3-8.4-1.8l-8.3-0.8c0,0-2-0.6-0.3-1.6c0,0,4.2,0.6,10.7-2.8c0,0,5.7-5.2,7-1.1
				c0,0,0,4.3,6.8,6.2l17.4,5.8c0,0,3.5,1.5,5.9,4.2c0,0,2.7,2.8,9.4,2h1.2c0,0-1-1.7-1.2-4.2c0,0-1.4-6.5,4-5.5l33.2,6
				c0,0,9,2.5,17.1-0.8c0,0,5.7-1.9,6.2-2.3c0,0-7.5,2.3-15.2,1.6c0,0-16.2,1.1-47.8-20.9c0,0-27.6-16.2-33.7-23.6
				c0,0,25.6,11.7,34.2,13.2c0,0,18.3,6.3,38.5,9c0,0,11.5,2.6,25.2-1.7c0,0-13.8,2-27-0.3c0,0-19.5-2.3-47.5-14.2
				c0,0-22-9.3-41.3-25.6c0,0-6.9-5.8-12.7-13.7c0,0,18.9,13,49.3,20.6c0,0,14.1,4.6,38.4,9c0,0,8.6,1.9,19,1.3
				c0,0-16.2-2.9-21.5-4.1c-5.3-1.2-16.8-3.3-31.8-7.9c0,0-11.5-2.1-39.6-17.4C-60.3-56.7-80.4-68.1-87.6-79.7z"/>
			<linearGradient id="XMLID_41_" gradientUnits="userSpaceOnUse" x1="-55.5238" y1="-17.708" x2="42.159" y2="-46.7534">
				<stop  offset="0" style="stop-color:#00283B"/>
				<stop  offset="0.54" style="stop-color:#00273A"/>
				<stop  offset="0.8" style="stop-color:#00A2D5"/>
				<stop  offset="1" style="stop-color:#00A2D5"/>
			</linearGradient>
			<path id="XMLID_46_" class="st3" d="M54.4-4.4c0,0-13.8,2-27-0.3c0,0-19.5-2.3-47.5-14.2c0,0-22-9.3-41.3-25.6
				c0,0-6.9-5.8-12.7-13.7c0,0,18.9,13,49.3,20.6c0,0,14.1,4.6,38.4,9c0,0,8.6,1.9,19,1.3c10.4-0.6,15.3,2,22.7,8
				C62.6-13.3,54.4-4.4,54.4-4.4z"/>
			<linearGradient id="XMLID_65_" gradientUnits="userSpaceOnUse" x1="-65.3637" y1="-34.0794" x2="42.8279" y2="-69.4345">
				<stop  offset="0" style="stop-color:#00283B"/>
				<stop  offset="0.37" style="stop-color:#00283B"/>
				<stop  offset="0.72" style="stop-color:#00A2D5"/>
				<stop  offset="1" style="stop-color:#00A2D5"/>
			</linearGradient>
			<path id="XMLID_45_" class="st4" d="M32.6-27.3c0,0-16.2-2.9-21.5-4.1c-5.3-1.2-16.8-3.3-31.8-7.9c0,0-11.5-2.1-39.6-17.4
				c0,0-20.2-11.4-27.4-23c0,0,25.6,17.1,61.3,22.2c0,0,30,6.4,41.4,7.7c0,0,39.3,4.9,47.6,19.7c8.4,14.8-19.6,2.8-19.6,2.8
				S39.6-28.9,32.6-27.3z"/>
			<path id="XMLID_28_" class="st5" d="M83.3-28.3c-6.1,0.7-10.9,2-10.8,2.8c0.1,0.9,5.1,1,11.1,0.2c6.1-0.7,10.9-2,10.8-2.8
				C94.3-28.9,89.3-29,83.3-28.3L83.3-28.3z M83.4-25.8L83.4-25.8c-4.7,0.6-8.5,0.6-8.6,0.2c-0.1-0.5,3.7-1.3,8.4-1.9
				c4.7-0.6,8.5-0.6,8.6-0.2C91.8-27.2,88.1-26.4,83.4-25.8z"/>
			<linearGradient id="XMLID_66_" gradientUnits="userSpaceOnUse" x1="-21.0588" y1="9.748" x2="48.6747" y2="-20.7467">
				<stop  offset="0" style="stop-color:#002637"/>
				<stop  offset="0.5" style="stop-color:#002E42"/>
				<stop  offset="0.82" style="stop-color:#00A2D5"/>
				<stop  offset="1" style="stop-color:#00A2D5"/>
			</linearGradient>
			<path id="XMLID_26_" class="st6" d="M53.2,18.1c0,0-7.5,2.3-15.2,1.6c0,0-16.2,1.1-47.8-20.9c0,0-27.6-16.2-33.7-23.6
				c0,0,25.6,11.7,34.2,13.2c0,0,18.3,6.3,38.5,9c0,0,11.5,2.6,25.2-1.7c13.7-4.3,12.7,16.6,12.7,16.6S64.7,21,53.2,18.1z"/>
		</g>
		<g id="XMLID_12_">
			<g id="XMLID_48_">
				<path class="st7" d="M-143.9,134.5c-1.1,0-2.2-0.2-3.2-0.6s-1.7-1-2.4-1.8l2.5-1.7c0.3,0.5,0.7,0.8,1.2,1
					c0.5,0.2,1.1,0.4,1.8,0.4c1.2,0,2.1-0.3,2.7-1c0.6-0.7,1-1.6,1-2.9v-13.7h3v13.7c0,2.1-0.6,3.7-1.8,4.9
					S-141.7,134.5-143.9,134.5z"/>
				<path class="st7" d="M-126.2,134.5c-2,0-3.6-0.5-4.7-1.6c-1.1-1.1-1.7-2.6-1.7-4.6V126c0-2,0.6-3.5,1.7-4.6
					c1.1-1.1,2.7-1.6,4.7-1.6c2,0,3.6,0.5,4.7,1.6c1.1,1.1,1.7,2.6,1.7,4.6v2.4c0,2-0.6,3.5-1.7,4.6
					C-122.6,134-124.2,134.5-126.2,134.5z M-126.2,131.8c1.1,0,1.9-0.3,2.5-0.9s0.9-1.5,0.9-2.6V126c0-1.1-0.3-2-0.9-2.6
					c-0.6-0.6-1.4-0.9-2.5-0.9c-1,0-1.9,0.3-2.4,0.9c-0.6,0.6-0.9,1.5-0.9,2.6v2.4c0,1.1,0.3,2,0.9,2.6S-127.2,131.8-126.2,131.8z"
					/>
				<path class="st7" d="M-115.5,134.3v-20.1h3v20.1H-115.5z M-108.6,134.5c-1,0-1.8-0.2-2.5-0.6c-0.7-0.4-1.2-1-1.6-1.8l0.2-3
					c0,0.6,0.1,1.1,0.4,1.6s0.6,0.8,1,1c0.4,0.2,1,0.3,1.6,0.3c1,0,1.8-0.3,2.3-0.8c0.5-0.6,0.8-1.4,0.8-2.4v-3.1
					c0-1-0.3-1.9-0.8-2.4c-0.5-0.6-1.3-0.9-2.3-0.9c-0.6,0-1.2,0.1-1.6,0.3c-0.5,0.2-0.8,0.5-1,1c-0.2,0.4-0.4,0.9-0.4,1.5l-0.3-2.8
					c0.5-0.8,1.1-1.5,1.8-1.9c0.8-0.5,1.6-0.7,2.5-0.7c1.7,0,2.9,0.5,3.8,1.5c0.9,1,1.4,2.5,1.4,4.3v3.1c0,1.8-0.5,3.3-1.4,4.3
					S-106.9,134.5-108.6,134.5z"/>
				<path class="st7" d="M-84.5,125.5c-1.2,0-2.2,0.3-2.9,0.9c-0.7,0.6-1,1.4-1,2.4c0,1,0.4,1.8,1.1,2.4c0.7,0.6,1.7,0.8,3,0.8
					c1.9,0,3.3-0.7,4.3-2.1c1-1.4,1.5-3.3,1.5-5.8h2.9c0,2.2-0.4,4.1-1.1,5.6c-0.7,1.5-1.8,2.7-3.2,3.5s-3.1,1.2-5.1,1.2
					c-2,0-3.6-0.5-4.7-1.5s-1.7-2.4-1.7-4.2c0-1.6,0.5-3,1.5-3.9c1-1,2.3-1.5,4.1-1.7L-84.5,125.5z M-77.7,134.3l-8.2-8
					c-1-1-1.8-2.1-2.4-3.2c-0.6-1.1-0.9-2.3-0.9-3.5c0-1.8,0.5-3.1,1.5-4.1c1-1,2.4-1.4,4.3-1.4c1.8,0,3.2,0.5,4.3,1.4
					s1.5,2.2,1.5,3.9v0.3h-3v-0.3c0-0.8-0.2-1.5-0.7-1.9c-0.5-0.4-1.1-0.7-2-0.7c-0.9,0-1.5,0.2-2,0.7c-0.5,0.5-0.7,1.2-0.7,2
					c0,0.8,0.2,1.6,0.6,2.5c0.4,0.9,1,1.7,1.8,2.4l9.9,9.8H-77.7z"/>
				<path class="st7" d="M-62.6,134.3v-20.1h3v20.1H-62.6z M-61.1,116.9v-2.7h12.4v2.7H-61.1z M-61.1,125.7V123h10.8v2.7H-61.1z
					 M-61.1,134.3v-2.7h12.4v2.7H-61.1z"/>
				<path class="st7" d="M-39.8,134.6c-1.7,0-3-0.5-3.9-1.5c-0.9-1-1.4-2.4-1.4-4.3v-3.2c0-1.9,0.5-3.3,1.4-4.3
					c0.9-1,2.2-1.5,3.8-1.5c0.9,0,1.7,0.2,2.5,0.7c0.8,0.4,1.4,1.1,1.8,1.9l-0.3,2.9c0-0.6-0.1-1.1-0.4-1.6c-0.2-0.4-0.6-0.8-1-1
					c-0.5-0.2-1-0.3-1.6-0.3c-1,0-1.8,0.3-2.3,0.9c-0.5,0.6-0.8,1.4-0.8,2.4v3.1c0,1,0.3,1.8,0.8,2.4c0.5,0.6,1.3,0.8,2.3,0.8
					c0.6,0,1.2-0.1,1.6-0.4c0.5-0.2,0.8-0.6,1-1c0.2-0.4,0.4-1,0.4-1.6l0.2,3c-0.3,0.6-0.8,1.2-1.4,1.7
					C-37.9,134.3-38.7,134.6-39.8,134.6z M-36,134.3v-20.1h3v20.1H-36z"/>
				<path class="st7" d="M-25.3,120v8.7c0,1,0.3,1.8,0.8,2.3s1.3,0.8,2.3,0.8s1.8-0.2,2.3-0.7c0.5-0.5,0.8-1.2,0.8-2.1l0.2,3
					c-0.3,0.6-0.8,1.2-1.5,1.7c-0.7,0.5-1.6,0.8-2.7,0.8c-1.7,0-3-0.5-3.9-1.5c-0.9-1-1.4-2.4-1.4-4.3V120H-25.3z M-19,134.3V120h3
					v14.3H-19z"/>
				<path class="st7" d="M-5.2,134.5c-2.1,0-3.8-0.5-4.9-1.6s-1.7-2.6-1.7-4.6v-2.4c0-2,0.6-3.5,1.7-4.5c1.2-1.1,2.8-1.6,4.9-1.6
					c1.2,0,2.3,0.2,3.3,0.6c1,0.4,1.7,1,2.3,1.7l-2.2,1.8c-0.4-0.5-0.9-0.8-1.5-1.1c-0.6-0.2-1.2-0.4-1.8-0.4
					c-1.2,0-2.1,0.3-2.7,0.9c-0.6,0.6-1,1.5-1,2.6v2.4c0,1.1,0.3,2,1,2.6s1.5,0.9,2.7,0.9c0.6,0,1.3-0.1,1.8-0.4s1.1-0.6,1.5-1.1
					l2.2,2c-0.6,0.7-1.3,1.3-2.3,1.7C-2.9,134.3-4,134.5-5.2,134.5z"/>
				<path class="st7" d="M8.6,134.5c-1.9,0-3.3-0.4-4.3-1.1c-0.9-0.7-1.4-1.8-1.4-3.3c0-1.4,0.4-2.5,1.3-3.2s2.2-1.1,3.9-1.1h4.4
					l0.2,2.3H8.2c-0.8,0-1.4,0.2-1.8,0.5s-0.6,0.8-0.6,1.5c0,0.7,0.3,1.3,0.8,1.6s1.3,0.5,2.4,0.5c1.1,0,2-0.1,2.6-0.3
					c0.6-0.2,0.9-0.6,0.9-1.1l0.3,2c-0.3,0.4-0.6,0.7-1,1s-0.8,0.4-1.4,0.6C9.8,134.5,9.3,134.5,8.6,134.5z M12.4,134.3v-9.1
					c0-0.9-0.3-1.7-0.8-2.2s-1.3-0.8-2.3-0.8c-0.6,0-1.2,0.1-1.8,0.3c-0.6,0.2-1.1,0.4-1.6,0.7l-2.2-1.4c0.6-0.7,1.4-1.2,2.3-1.5
					c1-0.4,2-0.5,3.2-0.5c1.9,0,3.4,0.5,4.5,1.4s1.6,2.2,1.6,3.9v9.2H12.4z"/>
				<path class="st7" d="M18.7,122.5V120h6.9v2.5H18.7z M23.9,134.4c-1.3,0-2.2-0.3-2.8-1c-0.6-0.7-0.9-1.6-0.9-2.8v-14.8h3v14.8
					c0,0.3,0.1,0.6,0.2,0.8c0.1,0.2,0.4,0.3,0.7,0.3h1.5v2.7H23.9z"/>
				<path class="st7" d="M29.8,117.1v-2.8h3v2.8H29.8z M29.8,134.3V120h3v14.3H29.8z"/>
				<path class="st7" d="M43.3,134.5c-2,0-3.6-0.5-4.7-1.6c-1.1-1.1-1.7-2.6-1.7-4.6V126c0-2,0.6-3.5,1.7-4.6
					c1.1-1.1,2.7-1.6,4.7-1.6s3.6,0.5,4.7,1.6c1.1,1.1,1.7,2.6,1.7,4.6v2.4c0,2-0.6,3.5-1.7,4.6C46.9,134,45.3,134.5,43.3,134.5z
					 M43.3,131.8c1.1,0,1.9-0.3,2.5-0.9c0.6-0.6,0.9-1.5,0.9-2.6V126c0-1.1-0.3-2-0.9-2.6c-0.6-0.6-1.4-0.9-2.5-0.9
					c-1,0-1.9,0.3-2.4,0.9c-0.6,0.6-0.9,1.5-0.9,2.6v2.4c0,1.1,0.3,2,0.9,2.6C41.4,131.5,42.3,131.8,43.3,131.8z"/>
				<path class="st7" d="M54,134.3V120h3v14.3H54z M63.3,134.3v-8.7c0-1-0.3-1.8-0.8-2.3s-1.4-0.8-2.4-0.8c-1,0-1.8,0.2-2.3,0.7
					c-0.5,0.5-0.8,1.2-0.8,2.1l-0.3-2.8c0.5-0.9,1.1-1.5,1.9-2s1.6-0.7,2.5-0.7c1.7,0,3,0.5,3.9,1.5c0.9,1,1.4,2.5,1.4,4.3v8.7H63.3
					z"/>
				<path class="st7" d="M79.4,134.3v-20.1h3v20.1H79.4z M80.9,126.5v-2.7h6.9c1,0,1.8-0.3,2.4-1s0.9-1.5,0.9-2.5
					c0-1-0.3-1.9-0.9-2.5c-0.6-0.6-1.4-1-2.4-1h-6.9v-2.7h6.8c1.3,0,2.4,0.3,3.4,0.8c1,0.5,1.7,1.2,2.3,2.1c0.5,0.9,0.8,2,0.8,3.2
					c0,1.2-0.3,2.3-0.8,3.2c-0.5,0.9-1.3,1.6-2.3,2.1c-1,0.5-2.1,0.8-3.4,0.8H80.9z"/>
				<path class="st7" d="M102.6,134.5c-2,0-3.6-0.5-4.7-1.6c-1.1-1.1-1.7-2.6-1.7-4.6V126c0-2,0.6-3.5,1.7-4.6
					c1.1-1.1,2.7-1.6,4.7-1.6s3.6,0.5,4.7,1.6c1.1,1.1,1.7,2.6,1.7,4.6v2.4c0,2-0.6,3.5-1.7,4.6C106.2,134,104.6,134.5,102.6,134.5z
					 M102.6,131.8c1.1,0,1.9-0.3,2.5-0.9c0.6-0.6,0.9-1.5,0.9-2.6V126c0-1.1-0.3-2-0.9-2.6c-0.6-0.6-1.4-0.9-2.5-0.9
					c-1,0-1.9,0.3-2.4,0.9c-0.6,0.6-0.9,1.5-0.9,2.6v2.4c0,1.1,0.3,2,0.9,2.6C100.7,131.5,101.5,131.8,102.6,131.8z"/>
				<path class="st7" d="M113.2,134.3V120h3v14.3H113.2z M121.7,123.4c-0.3-0.3-0.6-0.5-1-0.7c-0.4-0.2-0.9-0.2-1.4-0.2
					c-1,0-1.7,0.2-2.2,0.7c-0.5,0.5-0.8,1.2-0.8,2l-0.3-2.8c0.5-0.8,1.1-1.5,1.8-2c0.8-0.5,1.6-0.7,2.5-0.7c0.7,0,1.3,0.1,1.9,0.3
					c0.6,0.2,1.1,0.5,1.5,0.8L121.7,123.4z"/>
				<path class="st7" d="M125,122.5V120h6.9v2.5H125z M130.2,134.4c-1.3,0-2.2-0.3-2.8-1c-0.6-0.7-0.9-1.6-0.9-2.8v-14.8h3v14.8
					c0,0.3,0.1,0.6,0.2,0.8c0.1,0.2,0.4,0.3,0.7,0.3h1.5v2.7H130.2z"/>
				<path class="st7" d="M141,134.5c-1.9,0-3.3-0.4-4.3-1.1s-1.4-1.8-1.4-3.3c0-1.4,0.4-2.5,1.3-3.2c0.9-0.7,2.2-1.1,3.9-1.1h4.4
					l0.2,2.3h-4.6c-0.8,0-1.4,0.2-1.8,0.5c-0.4,0.3-0.6,0.8-0.6,1.5c0,0.7,0.3,1.3,0.8,1.6s1.3,0.5,2.4,0.5c1.1,0,2-0.1,2.6-0.3
					s0.9-0.6,0.9-1.1l0.3,2c-0.3,0.4-0.6,0.7-1,1s-0.8,0.4-1.4,0.6C142.3,134.5,141.7,134.5,141,134.5z M144.8,134.3v-9.1
					c0-0.9-0.3-1.7-0.8-2.2s-1.3-0.8-2.3-0.8c-0.6,0-1.2,0.1-1.8,0.3c-0.6,0.2-1.1,0.4-1.6,0.7l-2.2-1.4c0.6-0.7,1.4-1.2,2.3-1.5
					c1-0.4,2-0.5,3.2-0.5c1.9,0,3.4,0.5,4.5,1.4s1.6,2.2,1.6,3.9v9.2H144.8z"/>
				<path class="st7" d="M155.3,114.3v16.4c0,0.3,0.1,0.6,0.2,0.8c0.2,0.2,0.4,0.3,0.7,0.3h1.4v2.7h-1.8c-1.1,0-2-0.3-2.7-1
					s-0.9-1.6-0.9-2.8v-16.3H155.3z"/>
			</g>
			<g id="XMLID_16_">
				<path class="st8" d="M-152.4,101.1l-1.8-5.8H-166l-1.8,5.8h-8.7l11.7-33.5h9.4l11.7,33.5H-152.4z M-160.1,77.2l-3.7,11.4h7.5
					L-160.1,77.2z"/>
				<path class="st8" d="M-132.9,101.1h-7.9V76.6c3.5-1,7.5-1.4,11.9-1.4h1.7c6.4,0,9.5,3,9.5,9v16.9h-7.9V84.9
					c0-2.1-1.1-3.2-3.2-3.2h-1.1c-0.9,0-1.9,0.1-3.1,0.3V101.1z"/>
				<path class="st8" d="M-97.3,101v-0.2c-1.2,0.2-2.6,0.3-4.1,0.3h-1.7c-6.4,0-9.5-3-9.5-8.9v-8.1c0-6,3.2-9,9.5-9h1.7
					c4.4,0,8.4,0.5,11.9,1.4v24.6c0,3.1-0.8,5.4-2.4,7c-1.6,1.5-4.2,2.3-7.7,2.3h-1.4c-3.8,0-6.9-0.2-9.3-0.7v-5.5h9.8
					c1.1,0,1.9-0.2,2.4-0.7C-97.5,103-97.3,102.2-97.3,101z M-104.7,84.9v6.4c0,2.1,1.1,3.2,3.2,3.2h1.7c1,0,1.8-0.1,2.6-0.2V82
					c-0.9-0.2-1.9-0.3-3.1-0.3h-1.1C-103.6,81.7-104.7,82.8-104.7,84.9z"/>
				<path class="st8" d="M-61.2,84.5V91h-15.3v1.4c0,1.2,0.3,2.1,0.8,2.6s1.3,0.8,2.5,0.8h10.9v5.1c-2.9,0.5-6.2,0.7-9.9,0.7H-74
					c-3.6,0-6.2-0.8-7.8-2.3c-1.6-1.5-2.4-3.9-2.4-7v-7.7c0-3.1,0.8-5.5,2.5-7c1.6-1.6,4.2-2.3,7.8-2.3h2.6c3.6,0,6.2,0.8,7.8,2.3
					C-62,79.1-61.2,81.4-61.2,84.5z M-76.4,83.7v1.9h7.4v-1.2c0-2.3-1-3.4-2.9-3.4h-1.6c-0.9,0-1.7,0.2-2.1,0.7
					C-76.2,82.2-76.4,82.9-76.4,83.7z"/>
				<path class="st8" d="M-56,66.6h7.9v34.5H-56V66.6z"/>
				<path class="st8" d="M-29,88.5h-13.7v-6.9H-29V88.5z"/>
				<path class="st8" d="M-17,101.5h-1.1c-2.8,0-5.3-0.3-7.4-0.9v-6.1h7.3c2.9,0,4.4-1.5,4.4-4.5V67.6h8.4v22.6c0,4-0.9,6.9-2.7,8.6
					C-10,100.6-12.9,101.5-17,101.5z"/>
				<path class="st8" d="M0.1,92.2v-7.7c0-3.1,0.8-5.5,2.5-7c1.6-1.6,4.2-2.3,7.8-2.3h3.8c3.6,0,6.2,0.8,7.8,2.3
					c1.6,1.6,2.5,3.9,2.5,7v7.7c0,3.1-0.8,5.4-2.5,7c-1.6,1.5-4.3,2.3-7.8,2.3h-3.8c-3.6,0-6.2-0.8-7.8-2.3
					C0.9,97.6,0.1,95.3,0.1,92.2z M16.5,92v-6.6c0-1.4-0.2-2.4-0.7-3c-0.5-0.6-1.3-0.9-2.5-0.9h-2c-1.2,0-2.1,0.3-2.5,0.9
					c-0.5,0.6-0.7,1.6-0.7,3v6.1c0,1.4,0.2,2.4,0.7,3c0.5,0.6,1.3,0.9,2.5,0.9h2c1.1,0,2-0.3,2.5-0.8S16.5,93.1,16.5,92z"/>
				<path class="st8" d="M37.4,66.6v8.9c1.8-0.3,3.2-0.4,4.3-0.4h1.5c6.4,0,9.5,3,9.5,9v8.4c0,5.9-3.2,8.9-9.5,8.9h-1.7
					c-4.3,0-8.3-0.5-11.9-1.4V66.6H37.4z M44.8,91.8v-6c0-1.4-0.2-2.4-0.7-3.1c-0.5-0.6-1.3-1-2.5-1h-0.9c-1.2,0-2.3,0.1-3.3,0.3
					v12.6c0.8,0.2,1.8,0.2,3.1,0.2h1.1C43.7,94.9,44.8,93.9,44.8,91.8z"/>
				<path class="st8" d="M66.7,84.9l6,1c3.8,0.6,5.7,3.1,5.7,7.3v0.9c0,2.5-0.7,4.3-2,5.5c-1.3,1.2-3.5,1.9-6.6,1.9h-3
					c-2.9,0-5.8-0.2-8.6-0.7v-5.4h10.4c1.3,0,1.9-0.5,1.9-1.5v-0.8c0-0.9-0.6-1.5-1.7-1.6l-6-1c-3.8-0.6-5.7-3-5.7-7.3v-0.7
					c0-2.4,0.7-4.2,2-5.5s3.5-1.9,6.6-1.9h2.5c3,0,5.8,0.2,8.5,0.7v5.4h-10c-1.2,0-1.8,0.5-1.8,1.4v0.6C65,84.2,65.6,84.7,66.7,84.9
					z"/>
				<path class="st9" d="M89.9,100.3c-0.8,0.8-1.8,1.2-3,1.2s-2.2-0.4-3-1.2c-0.8-0.8-1.2-1.8-1.2-3c0-1.2,0.4-2.2,1.2-3
					c0.8-0.8,1.8-1.2,3-1.2s2.2,0.4,3,1.2c0.8,0.8,1.2,1.8,1.2,3C91.1,98.5,90.7,99.5,89.9,100.3z"/>
				<path class="st8" d="M106.6,95.2h9.1v5.6c-2.7,0.4-5.4,0.6-7.9,0.6h-2c-3.6,0-6.2-0.8-7.8-2.3c-1.6-1.5-2.5-3.9-2.5-7v-7.7
					c0-3.1,0.8-5.5,2.5-7c1.6-1.6,4.2-2.3,7.8-2.3h1.9c2.7,0,5.4,0.2,7.9,0.7v5.6h-9c-1.1,0-2,0.3-2.5,0.8c-0.5,0.5-0.8,1.4-0.8,2.5
					v7.2c0,1.2,0.3,2.1,0.8,2.6C104.6,95,105.5,95.2,106.6,95.2z"/>
				<path class="st8" d="M120,92.2v-7.7c0-3.1,0.8-5.5,2.5-7c1.6-1.6,4.2-2.3,7.8-2.3h3.8c3.6,0,6.2,0.8,7.8,2.3
					c1.6,1.6,2.5,3.9,2.5,7v7.7c0,3.1-0.8,5.4-2.5,7c-1.6,1.5-4.3,2.3-7.8,2.3h-3.8c-3.6,0-6.2-0.8-7.8-2.3
					C120.8,97.6,120,95.3,120,92.2z M136.4,92v-6.6c0-1.4-0.2-2.4-0.7-3c-0.5-0.6-1.3-0.9-2.5-0.9h-2c-1.2,0-2.1,0.3-2.5,0.9
					c-0.5,0.6-0.7,1.6-0.7,3v6.1c0,1.4,0.2,2.4,0.7,3c0.5,0.6,1.3,0.9,2.5,0.9h2c1.1,0,2-0.3,2.5-0.8S136.4,93.1,136.4,92z"/>
				<path class="st8" d="M157.3,101.1h-7.9V76.6c3.6-1,7.2-1.4,10.7-1.4h1.7c2.6,0,4.5,0.4,5.8,1.2c2.5-0.8,4.9-1.2,7.3-1.2h1.8
					c3.1,0,5.4,0.8,6.9,2.3c1.5,1.5,2.3,3.8,2.3,6.7v16.9H178V84.8c0-1.1-0.3-1.9-0.9-2.4c-0.6-0.5-1.6-0.7-2.9-0.7h-0.3
					c-0.9,0-1.8,0.1-2.6,0.3c0.2,0.8,0.3,1.4,0.3,2v17h-7.8V84.8c0-1-0.2-1.8-0.6-2.3s-1.1-0.7-2.1-0.7h-1.4c-0.8,0-1.5,0.1-2.3,0.2
					V101.1z"/>
			</g>
		</g>
	</g>
	<g id="XMLID_3_" class="st1">
		<g id="XMLID_5_">
			<path id="XMLID_13_" class="st2" d="M-87.6,198.3c0,0,25.6,17.1,61.3,22.2c0,0,30,6.4,41.4,7.7c0,0,39.3,4.9,47.6,19.7
				c0,0,8.4,10.3,11.8,29.2c0,0,2.6-3,3.2-10.3c0,0,0-9.9,11.6-9.7c0,0,3.2-0.2,4.7,5.2c0,0,0.9,4.2,5.7,6.8c0,0,0.3,1.2-1.6,1.5
				c0,0-0.6,0.9,0.5,1.4c0,0,0.6-0.1-0.8,0.9c0,0-0.2,0.4,0.9,0.3c0,0,0.6-0.2-0.3,0.9c0,0-0.3,0.6,1.4,0.8c0,0,0.6,2.1-2.9,2.6
				c0,0-8.6-0.2-12.2,10.2c0,0-1.7,6.3-1.9,10.6c0,0,1.1,8.4-14.8,9.3c0,0-8.4-0.3-29.8,7.2c0,0-24.3,7.6-37.4,10.3
				c0,0-9.3,4.1-5.8-2.4c0,0,1-1.4,0.5-8.2c0,0-9.6-0.1-11.8-0.5c0,0-2.8,0.5-6.9-1.6c0,0-15.8-6.2-23.9-7.5c0,0-7.8-1.9-12-2.5
				c0,0-9-0.5-13.4-3.2c0,0-1.6-1.7,1.7-1.8c0,0,7.1,1.5,11.4-0.6c0,0,3.2-3.4,5.7-1.7c0,0,2.4,3.4,5.2,4.9l15.5,0.8
				c0,0,0.6-0.2-1.8-1.4l-12.6-6.9c0,0-1.7-1.3-8.4-1.8l-8.3-0.8c0,0-2-0.6-0.3-1.6c0,0,4.2,0.6,10.7-2.8c0,0,5.7-5.2,7-1.1
				c0,0,0,4.3,6.8,6.2l17.4,5.8c0,0,3.5,1.5,5.9,4.2c0,0,2.7,2.8,9.4,2h1.2c0,0-1-1.7-1.2-4.2c0,0-1.4-6.5,4-5.5l33.2,6
				c0,0,9,2.5,17.1-0.8c0,0,5.7-1.9,6.2-2.3c0,0-7.5,2.3-15.2,1.6c0,0-16.2,1.1-47.8-20.9c0,0-27.6-16.2-33.7-23.6
				c0,0,25.6,11.7,34.2,13.2c0,0,18.3,6.3,38.5,9c0,0,11.5,2.6,25.2-1.7c0,0-13.8,2-27-0.3c0,0-19.5-2.3-47.5-14.2
				c0,0-22-9.3-41.3-25.6c0,0-6.9-5.8-12.7-13.7c0,0,18.9,13,49.3,20.6c0,0,14.1,4.6,38.4,9c0,0,8.6,1.9,19,1.3
				c0,0-16.2-2.9-21.5-4.1c-5.3-1.2-16.8-3.3-31.8-7.9c0,0-11.5-2.1-39.6-17.4C-60.3,221.2-80.4,209.9-87.6,198.3z"/>
			<linearGradient id="XMLID_67_" gradientUnits="userSpaceOnUse" x1="-55.5236" y1="260.2509" x2="42.1592" y2="231.2056">
				<stop  offset="0" style="stop-color:#00283B"/>
				<stop  offset="0.54" style="stop-color:#00273A"/>
				<stop  offset="0.8" style="stop-color:#00A2D5"/>
				<stop  offset="1" style="stop-color:#00A2D5"/>
			</linearGradient>
			<path id="XMLID_11_" class="st10" d="M54.4,273.6c0,0-13.8,2-27-0.3c0,0-19.5-2.3-47.5-14.2c0,0-22-9.3-41.3-25.6
				c0,0-6.9-5.8-12.7-13.7c0,0,18.9,13,49.3,20.6c0,0,14.1,4.6,38.4,9c0,0,8.6,1.9,19,1.3c10.4-0.6,15.3,2,22.7,8
				C62.6,264.6,54.4,273.6,54.4,273.6z"/>
			<linearGradient id="XMLID_68_" gradientUnits="userSpaceOnUse" x1="-65.3636" y1="243.8795" x2="42.8281" y2="208.5244">
				<stop  offset="0" style="stop-color:#00283B"/>
				<stop  offset="0.37" style="stop-color:#00283B"/>
				<stop  offset="0.72" style="stop-color:#00A2D5"/>
				<stop  offset="1" style="stop-color:#00A2D5"/>
			</linearGradient>
			<path id="XMLID_10_" class="st11" d="M32.6,250.6c0,0-16.2-2.9-21.5-4.1c-5.3-1.2-16.8-3.3-31.8-7.9c0,0-11.5-2.1-39.6-17.4
				c0,0-20.2-11.4-27.4-23c0,0,25.6,17.1,61.3,22.2c0,0,30,6.4,41.4,7.7c0,0,39.3,4.9,47.6,19.7c8.4,14.8-19.6,2.8-19.6,2.8
				S39.6,249,32.6,250.6z"/>
			<path id="XMLID_7_" class="st5" d="M83.3,249.6c-6.1,0.7-10.9,2-10.8,2.8c0.1,0.9,5.1,1,11.1,0.2c6.1-0.7,10.9-2,10.8-2.8
				C94.3,249,89.3,248.9,83.3,249.6L83.3,249.6z M83.4,252.1L83.4,252.1c-4.7,0.6-8.5,0.6-8.6,0.2c-0.1-0.5,3.7-1.3,8.4-1.9
				c4.7-0.6,8.5-0.6,8.6-0.2C91.8,250.8,88.1,251.6,83.4,252.1z"/>
			<linearGradient id="XMLID_69_" gradientUnits="userSpaceOnUse" x1="-21.0669" y1="287.7105" x2="48.6667" y2="257.2159">
				<stop  offset="0" style="stop-color:#002637"/>
				<stop  offset="0.5" style="stop-color:#002E42"/>
				<stop  offset="0.82" style="stop-color:#00A2D5"/>
				<stop  offset="1" style="stop-color:#00A2D5"/>
			</linearGradient>
			<path id="XMLID_6_" class="st12" d="M53.2,296c0,0-7.5,2.3-15.2,1.6c0,0-16.2,1.1-47.8-20.9c0,0-27.6-16.2-33.7-23.6
				c0,0,25.6,11.7,34.2,13.2c0,0,18.3,6.3,38.5,9c0,0,11.5,2.6,25.2-1.7c13.7-4.3,12.7,16.6,12.7,16.6S64.7,299,53.2,296z"/>
		</g>
		<g id="XMLID_2_">
			<g id="XMLID_14_">
				<path class="st7" d="M-144.7,412.5c-1.1,0-2.2-0.2-3.2-0.6s-1.7-1-2.4-1.8l2.5-1.7c0.3,0.5,0.7,0.8,1.2,1
					c0.5,0.2,1.1,0.4,1.8,0.4c1.2,0,2.1-0.3,2.7-1c0.6-0.7,1-1.6,1-2.9v-13.7h3v13.7c0,2.1-0.6,3.7-1.8,4.9
					S-142.5,412.5-144.7,412.5z"/>
				<path class="st7" d="M-127,412.5c-2,0-3.6-0.5-4.7-1.6c-1.1-1.1-1.7-2.6-1.7-4.6v-2.3c0-2,0.6-3.5,1.7-4.6
					c1.1-1.1,2.7-1.6,4.7-1.6c2,0,3.6,0.5,4.7,1.6c1.1,1.1,1.7,2.6,1.7,4.6v2.4c0,2-0.6,3.5-1.7,4.6
					C-123.4,411.9-125,412.5-127,412.5z M-127,409.8c1.1,0,1.9-0.3,2.5-0.9c0.6-0.6,0.9-1.5,0.9-2.6v-2.4c0-1.1-0.3-2-0.9-2.6
					c-0.6-0.6-1.4-0.9-2.5-0.9c-1,0-1.9,0.3-2.4,0.9c-0.6,0.6-0.9,1.5-0.9,2.6v2.4c0,1.1,0.3,2,0.9,2.6
					C-128.9,409.5-128,409.8-127,409.8z"/>
				<path class="st7" d="M-116.3,412.3v-20.1h3v20.1H-116.3z M-109.4,412.5c-1,0-1.8-0.2-2.5-0.6c-0.7-0.4-1.2-1-1.6-1.8l0.2-3
					c0,0.6,0.1,1.1,0.4,1.6s0.6,0.8,1,1c0.4,0.2,1,0.3,1.6,0.3c1,0,1.8-0.3,2.3-0.8c0.5-0.6,0.8-1.4,0.8-2.4v-3.1
					c0-1-0.3-1.9-0.8-2.4c-0.5-0.6-1.3-0.9-2.3-0.9c-0.6,0-1.2,0.1-1.6,0.3c-0.5,0.2-0.8,0.5-1,1s-0.4,0.9-0.4,1.5l-0.3-2.8
					c0.5-0.8,1.1-1.5,1.8-1.9c0.8-0.5,1.6-0.7,2.5-0.7c1.7,0,2.9,0.5,3.8,1.5c0.9,1,1.4,2.5,1.4,4.3v3.1c0,1.8-0.5,3.3-1.4,4.3
					S-107.8,412.5-109.4,412.5z"/>
				<path class="st7" d="M-85.3,403.5c-1.2,0-2.2,0.3-2.9,0.9c-0.7,0.6-1,1.4-1,2.4c0,1,0.4,1.8,1.1,2.4c0.7,0.6,1.7,0.8,3,0.8
					c1.9,0,3.3-0.7,4.3-2.1c1-1.4,1.5-3.3,1.5-5.8h2.9c0,2.2-0.4,4.1-1.1,5.6c-0.7,1.5-1.8,2.7-3.2,3.5c-1.4,0.8-3.1,1.2-5.1,1.2
					c-2,0-3.6-0.5-4.7-1.5s-1.7-2.4-1.7-4.3c0-1.6,0.5-3,1.5-3.9c1-1,2.3-1.5,4.1-1.7L-85.3,403.5z M-78.5,412.3l-8.2-8
					c-1-1-1.8-2.1-2.4-3.2c-0.6-1.1-0.9-2.3-0.9-3.5c0-1.8,0.5-3.1,1.5-4.1c1-1,2.4-1.4,4.3-1.4c1.8,0,3.2,0.5,4.3,1.4
					s1.5,2.2,1.5,3.9v0.3h-3v-0.3c0-0.8-0.2-1.5-0.7-1.9c-0.5-0.4-1.1-0.7-2-0.7c-0.9,0-1.5,0.2-2,0.7c-0.5,0.5-0.7,1.2-0.7,2
					c0,0.8,0.2,1.6,0.6,2.5c0.4,0.9,1,1.7,1.8,2.4l9.9,9.8H-78.5z"/>
				<path class="st7" d="M-63.4,412.3v-20.1h3v20.1H-63.4z M-61.9,394.9v-2.7h12.4v2.7H-61.9z M-61.9,403.6V401h10.8v2.7H-61.9z
					 M-61.9,412.3v-2.7h12.4v2.7H-61.9z"/>
				<path class="st7" d="M-40.7,412.5c-1.7,0-3-0.5-3.9-1.5c-0.9-1-1.4-2.4-1.4-4.3v-3.2c0-1.9,0.5-3.3,1.4-4.3
					c0.9-1,2.2-1.5,3.8-1.5c0.9,0,1.7,0.2,2.5,0.7c0.8,0.4,1.4,1.1,1.8,1.9l-0.3,2.9c0-0.6-0.1-1.1-0.4-1.6s-0.6-0.8-1-1
					s-1-0.3-1.6-0.3c-1,0-1.8,0.3-2.3,0.9c-0.5,0.6-0.8,1.4-0.8,2.4v3.1c0,1,0.3,1.8,0.8,2.4c0.5,0.6,1.3,0.8,2.3,0.8
					c0.6,0,1.2-0.1,1.6-0.4s0.8-0.6,1-1s0.4-1,0.4-1.6l0.2,3c-0.3,0.6-0.8,1.2-1.4,1.7C-38.7,412.3-39.6,412.5-40.7,412.5z
					 M-36.8,412.3v-20.1h3v20.1H-36.8z"/>
				<path class="st7" d="M-26.1,398v8.7c0,1,0.3,1.8,0.8,2.3c0.5,0.5,1.3,0.8,2.3,0.8s1.8-0.2,2.3-0.7s0.8-1.2,0.8-2.1l0.2,3
					c-0.3,0.6-0.8,1.2-1.5,1.7c-0.7,0.5-1.6,0.8-2.7,0.8c-1.7,0-3-0.5-3.9-1.5s-1.4-2.4-1.4-4.3V398H-26.1z M-19.9,412.3V398h3v14.3
					H-19.9z"/>
				<path class="st7" d="M-6,412.5c-2.1,0-3.8-0.5-4.9-1.6s-1.7-2.6-1.7-4.6v-2.4c0-2,0.6-3.5,1.7-4.5s2.8-1.6,4.9-1.6
					c1.2,0,2.3,0.2,3.3,0.6c1,0.4,1.7,1,2.3,1.7l-2.2,1.8c-0.4-0.5-0.9-0.8-1.5-1.1c-0.6-0.2-1.2-0.4-1.8-0.4
					c-1.2,0-2.1,0.3-2.7,0.9c-0.6,0.6-1,1.5-1,2.6v2.4c0,1.1,0.3,2,1,2.6c0.6,0.6,1.5,0.9,2.7,0.9c0.6,0,1.3-0.1,1.8-0.4
					c0.6-0.3,1.1-0.6,1.5-1.1l2.2,2c-0.6,0.7-1.3,1.3-2.3,1.7C-3.8,412.3-4.8,412.5-6,412.5z"/>
				<path class="st7" d="M7.8,412.5c-1.9,0-3.3-0.4-4.3-1.1s-1.4-1.8-1.4-3.3c0-1.4,0.4-2.5,1.3-3.2c0.9-0.7,2.2-1.1,3.9-1.1h4.4
					l0.2,2.3H7.3c-0.8,0-1.4,0.2-1.8,0.5S5,407.4,5,408.1c0,0.7,0.3,1.3,0.8,1.6s1.3,0.5,2.4,0.5c1.1,0,2-0.1,2.6-0.3
					c0.6-0.2,0.9-0.6,0.9-1.1l0.3,2c-0.3,0.4-0.6,0.7-1,1s-0.8,0.4-1.4,0.6S8.4,412.5,7.8,412.5z M11.6,412.3v-9.1
					c0-0.9-0.3-1.7-0.8-2.2c-0.5-0.5-1.3-0.8-2.3-0.8c-0.6,0-1.2,0.1-1.8,0.3c-0.6,0.2-1.1,0.4-1.6,0.7l-2.2-1.4
					c0.6-0.7,1.4-1.2,2.3-1.5c1-0.4,2-0.5,3.2-0.5c1.9,0,3.4,0.5,4.5,1.4s1.6,2.2,1.6,3.9v9.2H11.6z"/>
				<path class="st7" d="M17.9,400.5V398h6.9v2.5H17.9z M23.1,412.3c-1.3,0-2.2-0.3-2.8-1c-0.6-0.7-0.9-1.6-0.9-2.8v-14.8h3v14.8
					c0,0.3,0.1,0.6,0.2,0.8s0.4,0.3,0.7,0.3h1.5v2.7H23.1z"/>
				<path class="st7" d="M29,395v-2.8h3v2.8H29z M29,412.3V398h3v14.3H29z"/>
				<path class="st7" d="M42.5,412.5c-2,0-3.6-0.5-4.7-1.6c-1.1-1.1-1.7-2.6-1.7-4.6v-2.3c0-2,0.6-3.5,1.7-4.6
					c1.1-1.1,2.7-1.6,4.7-1.6s3.6,0.5,4.7,1.6c1.1,1.1,1.7,2.6,1.7,4.6v2.4c0,2-0.6,3.5-1.7,4.6C46.1,411.9,44.5,412.5,42.5,412.5z
					 M42.5,409.8c1.1,0,1.9-0.3,2.5-0.9c0.6-0.6,0.9-1.5,0.9-2.6v-2.4c0-1.1-0.3-2-0.9-2.6c-0.6-0.6-1.4-0.9-2.5-0.9
					c-1,0-1.9,0.3-2.4,0.9c-0.6,0.6-0.9,1.5-0.9,2.6v2.4c0,1.1,0.3,2,0.9,2.6C40.6,409.5,41.4,409.8,42.5,409.8z"/>
				<path class="st7" d="M53.1,412.3V398h3v14.3H53.1z M62.5,412.3v-8.7c0-1-0.3-1.8-0.8-2.3c-0.6-0.6-1.4-0.8-2.4-0.8
					c-1,0-1.8,0.2-2.3,0.7s-0.8,1.2-0.8,2.1l-0.3-2.8c0.5-0.9,1.1-1.5,1.9-2c0.8-0.5,1.6-0.7,2.5-0.7c1.7,0,3,0.5,3.9,1.5
					c0.9,1,1.4,2.5,1.4,4.3v8.7H62.5z"/>
				<path class="st7" d="M78.6,412.3v-20.1h3v20.1H78.6z M80.1,404.5v-2.7H87c1,0,1.8-0.3,2.4-1s0.9-1.5,0.9-2.5
					c0-1-0.3-1.9-0.9-2.5s-1.4-1-2.4-1h-6.9v-2.7h6.8c1.3,0,2.4,0.3,3.4,0.8c1,0.5,1.7,1.2,2.3,2.1s0.8,2,0.8,3.2
					c0,1.2-0.3,2.3-0.8,3.2s-1.3,1.6-2.3,2.1c-1,0.5-2.1,0.8-3.4,0.8H80.1z"/>
				<path class="st7" d="M101.8,412.5c-2,0-3.6-0.5-4.7-1.6c-1.1-1.1-1.7-2.6-1.7-4.6v-2.3c0-2,0.6-3.5,1.7-4.6
					c1.1-1.1,2.7-1.6,4.7-1.6s3.6,0.5,4.7,1.6c1.1,1.1,1.7,2.6,1.7,4.6v2.4c0,2-0.6,3.5-1.7,4.6
					C105.3,411.9,103.8,412.5,101.8,412.5z M101.8,409.8c1.1,0,1.9-0.3,2.5-0.9c0.6-0.6,0.9-1.5,0.9-2.6v-2.4c0-1.1-0.3-2-0.9-2.6
					c-0.6-0.6-1.4-0.9-2.5-0.9c-1,0-1.9,0.3-2.4,0.9c-0.6,0.6-0.9,1.5-0.9,2.6v2.4c0,1.1,0.3,2,0.9,2.6
					C99.9,409.5,100.7,409.8,101.8,409.8z"/>
				<path class="st7" d="M112.4,412.3V398h3v14.3H112.4z M120.9,401.3c-0.3-0.3-0.6-0.5-1-0.7c-0.4-0.2-0.9-0.2-1.4-0.2
					c-1,0-1.7,0.2-2.2,0.7c-0.5,0.5-0.8,1.2-0.8,2l-0.3-2.8c0.5-0.8,1.1-1.5,1.8-2s1.6-0.7,2.5-0.7c0.7,0,1.3,0.1,1.9,0.3
					s1.1,0.5,1.5,0.8L120.9,401.3z"/>
				<path class="st7" d="M124.2,400.5V398h6.9v2.5H124.2z M129.4,412.3c-1.3,0-2.2-0.3-2.8-1c-0.6-0.7-0.9-1.6-0.9-2.8v-14.8h3v14.8
					c0,0.3,0.1,0.6,0.2,0.8s0.4,0.3,0.7,0.3h1.5v2.7H129.4z"/>
				<path class="st7" d="M140.2,412.5c-1.9,0-3.3-0.4-4.3-1.1s-1.4-1.8-1.4-3.3c0-1.4,0.4-2.5,1.3-3.2c0.9-0.7,2.2-1.1,3.9-1.1h4.4
					l0.2,2.3h-4.6c-0.8,0-1.4,0.2-1.8,0.5c-0.4,0.3-0.6,0.8-0.6,1.5c0,0.7,0.3,1.3,0.8,1.6s1.3,0.5,2.4,0.5c1.1,0,2-0.1,2.6-0.3
					c0.6-0.2,0.9-0.6,0.9-1.1l0.3,2c-0.3,0.4-0.6,0.7-1,1s-0.8,0.4-1.4,0.6C141.4,412.4,140.9,412.5,140.2,412.5z M144,412.3v-9.1
					c0-0.9-0.3-1.7-0.8-2.2c-0.5-0.5-1.3-0.8-2.3-0.8c-0.6,0-1.2,0.1-1.8,0.3c-0.6,0.2-1.1,0.4-1.6,0.7l-2.2-1.4
					c0.6-0.7,1.4-1.2,2.3-1.5c1-0.4,2-0.5,3.2-0.5c1.9,0,3.4,0.5,4.5,1.4s1.6,2.2,1.6,3.9v9.2H144z"/>
				<path class="st7" d="M154.5,392.2v16.4c0,0.3,0.1,0.6,0.2,0.8c0.2,0.2,0.4,0.3,0.7,0.3h1.4v2.7h-1.8c-1.1,0-2-0.3-2.7-1
					c-0.6-0.7-0.9-1.6-0.9-2.8v-16.3H154.5z"/>
			</g>
			<g id="XMLID_4_">
				<path class="st8" d="M-126.1,379l-1.8-5.8h-11.8l-1.8,5.8h-8.7l11.7-33.5h9.4l11.7,33.5H-126.1z M-133.8,355.1l-3.7,11.4h7.5
					L-133.8,355.1z"/>
				<path class="st8" d="M-106.6,379h-7.9v-24.5c3.5-1,7.5-1.4,11.9-1.4h1.7c6.4,0,9.5,3,9.5,9V379h-7.9v-16.1
					c0-2.1-1.1-3.2-3.2-3.2h-1.1c-0.9,0-1.9,0.1-3.1,0.3V379z"/>
				<path class="st8" d="M-70.9,379v-0.2c-1.2,0.2-2.6,0.3-4.1,0.3h-1.7c-6.4,0-9.5-3-9.5-8.9v-8.1c0-6,3.2-9,9.5-9h1.7
					c4.4,0,8.4,0.5,11.9,1.4v24.6c0,3.1-0.8,5.4-2.4,7c-1.6,1.5-4.2,2.3-7.7,2.3h-1.4c-3.8,0-6.9-0.2-9.3-0.7v-5.5h9.8
					c1.1,0,1.9-0.2,2.4-0.7C-71.2,380.9-70.9,380.1-70.9,379z M-78.4,362.9v6.4c0,2.1,1.1,3.2,3.2,3.2h1.7c1,0,1.8-0.1,2.6-0.2V360
					c-0.9-0.2-1.9-0.3-3.1-0.3h-1.1C-77.3,359.7-78.4,360.8-78.4,362.9z"/>
				<path class="st8" d="M-34.8,362.5v6.4h-15.3v1.4c0,1.2,0.3,2.1,0.8,2.6c0.5,0.5,1.3,0.8,2.5,0.8h10.9v5.1
					c-2.9,0.5-6.2,0.7-9.9,0.7h-1.8c-3.6,0-6.2-0.8-7.8-2.3c-1.6-1.5-2.4-3.9-2.4-7v-7.7c0-3.1,0.8-5.5,2.5-7
					c1.6-1.6,4.2-2.3,7.8-2.3h2.6c3.6,0,6.2,0.8,7.8,2.3C-35.6,357-34.8,359.4-34.8,362.5z M-50.1,361.7v1.9h7.4v-1.2
					c0-2.3-1-3.4-2.9-3.4h-1.6c-0.9,0-1.7,0.2-2.1,0.7C-49.8,360.2-50.1,360.8-50.1,361.7z"/>
				<path class="st8" d="M-29.7,344.6h7.9V379h-7.9V344.6z"/>
				<path class="st8" d="M-2.7,366.4h-13.7v-6.9h13.7V366.4z"/>
				<path class="st8" d="M9.3,379.5H8.2c-2.8,0-5.3-0.3-7.4-0.9v-6.1h7.3c2.9,0,4.4-1.5,4.4-4.5v-22.5h8.4v22.6c0,4-0.9,6.9-2.7,8.6
					C16.4,378.6,13.4,379.5,9.3,379.5z"/>
				<path class="st8" d="M26.4,370.2v-7.7c0-3.1,0.8-5.5,2.5-7c1.6-1.6,4.2-2.3,7.8-2.3h3.8c3.6,0,6.2,0.8,7.8,2.3
					c1.6,1.6,2.5,3.9,2.5,7v7.7c0,3.1-0.8,5.4-2.5,7c-1.6,1.5-4.3,2.3-7.8,2.3h-3.8c-3.6,0-6.2-0.8-7.8-2.3
					C27.2,375.6,26.4,373.3,26.4,370.2z M42.8,369.9v-6.6c0-1.4-0.2-2.4-0.7-3s-1.3-0.9-2.5-0.9h-2c-1.2,0-2.1,0.3-2.5,0.9
					c-0.5,0.6-0.7,1.6-0.7,3v6.1c0,1.4,0.2,2.4,0.7,3s1.3,0.9,2.5,0.9h2c1.1,0,2-0.3,2.5-0.8C42.6,371.9,42.8,371.1,42.8,369.9z"/>
				<path class="st8" d="M63.7,344.6v8.9c1.8-0.3,3.2-0.4,4.3-0.4h1.5c6.4,0,9.5,3,9.5,9v8.4c0,5.9-3.2,8.9-9.5,8.9h-1.7
					c-4.3,0-8.3-0.5-11.9-1.4v-33.5H63.7z M71.1,369.7v-6c0-1.4-0.2-2.4-0.7-3.1c-0.5-0.6-1.3-1-2.5-1H67c-1.2,0-2.3,0.1-3.3,0.3
					v12.6c0.8,0.2,1.8,0.2,3.1,0.2h1.1C70.1,372.9,71.1,371.8,71.1,369.7z"/>
				<path class="st8" d="M93,362.9l6,1c3.8,0.6,5.7,3.1,5.7,7.3v0.9c0,2.5-0.7,4.3-2,5.5c-1.3,1.2-3.5,1.9-6.6,1.9h-3
					c-2.9,0-5.8-0.2-8.6-0.7v-5.4H95c1.3,0,1.9-0.5,1.9-1.5v-0.8c0-0.9-0.6-1.5-1.7-1.6l-6-1c-3.8-0.6-5.7-3-5.7-7.3v-0.7
					c0-2.4,0.7-4.2,2-5.5c1.3-1.2,3.5-1.9,6.6-1.9h2.5c3,0,5.8,0.2,8.5,0.7v5.4h-10c-1.2,0-1.8,0.5-1.8,1.4v0.6
					C91.3,362.2,91.9,362.7,93,362.9z"/>
				<path class="st9" d="M116.2,378.3c-0.8,0.8-1.8,1.2-3,1.2s-2.2-0.4-3-1.2c-0.8-0.8-1.2-1.8-1.2-3s0.4-2.2,1.2-3
					c0.8-0.8,1.8-1.2,3-1.2s2.2,0.4,3,1.2c0.8,0.8,1.2,1.8,1.2,3S117.1,377.4,116.2,378.3z"/>
				<path class="st8" d="M139.7,350.1H135c-0.8,0-1.3,0.2-1.6,0.5c-0.3,0.3-0.4,0.9-0.4,1.6v1.3h6.6v6.3H133V379h-7.9v-19.2H121
					v-6.3h4.1v-3c0-2,0.6-3.5,1.7-4.7c1.1-1.1,2.7-1.7,4.7-1.7h1.6c2.3,0,4.6,0.2,6.7,0.7V350.1z"/>
				<path class="st8" d="M152.7,353.1h0.9c2.9,0,5.6,0.2,8.1,0.7v5.6h-7.5c-2,0-3,1-3,3V379h-7.9v-17.1
					C143.3,356.1,146.4,353.1,152.7,353.1z"/>
			</g>
		</g>
	</g>
	<g id="XMLID_1_" class="st1">
		<g id="XMLID_50_">
			<path id="XMLID_57_" class="st2" d="M-87.6,480.8c0,0,25.6,17.1,61.3,22.2c0,0,30,6.4,41.4,7.7c0,0,39.3,4.9,47.6,19.7
				c0,0,8.4,10.3,11.8,29.2c0,0,2.6-3,3.2-10.3c0,0,0-9.9,11.6-9.7c0,0,3.2-0.2,4.7,5.2c0,0,0.9,4.2,5.7,6.8c0,0,0.3,1.2-1.6,1.5
				c0,0-0.6,0.9,0.5,1.4c0,0,0.6-0.1-0.8,0.9c0,0-0.2,0.4,0.9,0.3c0,0,0.6-0.2-0.3,0.9c0,0-0.3,0.6,1.4,0.8c0,0,0.6,2.1-2.9,2.6
				c0,0-8.6-0.2-12.2,10.2c0,0-1.7,6.3-1.9,10.6c0,0,1.1,8.4-14.8,9.3c0,0-8.4-0.3-29.8,7.2c0,0-24.3,7.6-37.4,10.3
				c0,0-9.3,4.1-5.8-2.4c0,0,1-1.4,0.5-8.2c0,0-9.6-0.1-11.8-0.5c0,0-2.8,0.5-6.9-1.6c0,0-15.8-6.2-23.9-7.5c0,0-7.8-1.9-12-2.5
				c0,0-9-0.5-13.4-3.2c0,0-1.6-1.7,1.7-1.8c0,0,7.1,1.5,11.4-0.6c0,0,3.2-3.4,5.7-1.7c0,0,2.4,3.4,5.2,4.9l15.5,0.8
				c0,0,0.6-0.2-1.8-1.4l-12.6-6.9c0,0-1.7-1.3-8.4-1.8l-8.3-0.8c0,0-2-0.6-0.3-1.6c0,0,4.2,0.6,10.7-2.8c0,0,5.7-5.2,7-1.1
				c0,0,0,4.3,6.8,6.2l17.4,5.8c0,0,3.5,1.5,5.9,4.2c0,0,2.7,2.8,9.4,2h1.2c0,0-1-1.7-1.2-4.2c0,0-1.4-6.5,4-5.5l33.2,6
				c0,0,9,2.5,17.1-0.8c0,0,5.7-1.9,6.2-2.3c0,0-7.5,2.3-15.2,1.6c0,0-16.2,1.1-47.8-20.9c0,0-27.6-16.2-33.7-23.6
				c0,0,25.6,11.7,34.2,13.2c0,0,18.3,6.3,38.5,9c0,0,11.5,2.6,25.2-1.7c0,0-13.8,2-27-0.3c0,0-19.5-2.3-47.5-14.2
				c0,0-22-9.3-41.3-25.6c0,0-6.9-5.8-12.7-13.7c0,0,18.9,13,49.3,20.6c0,0,14.1,4.6,38.4,9c0,0,8.6,1.9,19,1.3
				c0,0-16.2-2.9-21.5-4.1c-5.3-1.2-16.8-3.3-31.8-7.9c0,0-11.5-2.1-39.6-17.4C-60.3,503.8-80.4,492.4-87.6,480.8z"/>
			<linearGradient id="XMLID_70_" gradientUnits="userSpaceOnUse" x1="-55.5238" y1="542.8276" x2="42.159" y2="513.7823">
				<stop  offset="0" style="stop-color:#00283B"/>
				<stop  offset="0.54" style="stop-color:#00273A"/>
				<stop  offset="0.8" style="stop-color:#00A2D5"/>
				<stop  offset="1" style="stop-color:#00A2D5"/>
			</linearGradient>
			<path id="XMLID_56_" class="st13" d="M54.4,556.2c0,0-13.8,2-27-0.3c0,0-19.5-2.3-47.5-14.2c0,0-22-9.3-41.3-25.6
				c0,0-6.9-5.8-12.7-13.7c0,0,18.9,13,49.3,20.6c0,0,14.1,4.6,38.4,9c0,0,8.6,1.9,19,1.3c10.4-0.6,15.3,2,22.7,8
				C62.6,547.2,54.4,556.2,54.4,556.2z"/>
			<linearGradient id="XMLID_71_" gradientUnits="userSpaceOnUse" x1="-65.3638" y1="526.4562" x2="42.8279" y2="491.1011">
				<stop  offset="0" style="stop-color:#00283B"/>
				<stop  offset="0.37" style="stop-color:#00283B"/>
				<stop  offset="0.72" style="stop-color:#00A2D5"/>
				<stop  offset="1" style="stop-color:#00A2D5"/>
			</linearGradient>
			<path id="XMLID_55_" class="st14" d="M32.6,533.2c0,0-16.2-2.9-21.5-4.1c-5.3-1.2-16.8-3.3-31.8-7.9c0,0-11.5-2.1-39.6-17.4
				c0,0-20.2-11.4-27.4-23c0,0,25.6,17.1,61.3,22.2c0,0,30,6.4,41.4,7.7c0,0,39.3,4.9,47.6,19.7c8.4,14.8-19.6,2.8-19.6,2.8
				S39.6,531.6,32.6,533.2z"/>
			<path id="XMLID_52_" class="st5" d="M83.3,532.2c-6.1,0.7-10.9,2-10.8,2.8c0.1,0.9,5.1,1,11.1,0.2c6.1-0.7,10.9-2,10.8-2.8
				C94.3,531.6,89.3,531.5,83.3,532.2L83.3,532.2z M83.4,534.7L83.4,534.7c-4.7,0.6-8.5,0.6-8.6,0.2s3.7-1.3,8.4-1.9
				c4.7-0.6,8.5-0.6,8.6-0.2C91.8,533.3,88.1,534.2,83.4,534.7z"/>
			<linearGradient id="XMLID_72_" gradientUnits="userSpaceOnUse" x1="-21.0671" y1="570.2872" x2="48.6665" y2="539.7925">
				<stop  offset="0" style="stop-color:#002637"/>
				<stop  offset="0.5" style="stop-color:#002E42"/>
				<stop  offset="0.82" style="stop-color:#00A2D5"/>
				<stop  offset="1" style="stop-color:#00A2D5"/>
			</linearGradient>
			<path id="XMLID_51_" class="st15" d="M53.2,578.6c0,0-7.5,2.3-15.2,1.6c0,0-16.2,1.1-47.8-20.9c0,0-27.6-16.2-33.7-23.6
				c0,0,25.6,11.7,34.2,13.2c0,0,18.3,6.3,38.5,9c0,0,11.5,2.6,25.2-1.7c13.7-4.3,12.7,16.6,12.7,16.6S64.7,581.6,53.2,578.6z"/>
		</g>
		<g id="XMLID_49_">
			<path class="st8" d="M-135.7,653l-1.3-4.2h-8.5l-1.3,4.2h-6.3l8.5-24.2h6.8l8.5,24.2H-135.7z M-141.3,635.7l-2.7,8.2h5.4
				L-141.3,635.7z"/>
			<path class="st8" d="M-121.6,653h-5.7v-17.7c2.5-0.7,5.4-1,8.6-1h1.2c4.6,0,6.9,2.2,6.9,6.5V653h-5.7v-11.7
				c0-1.5-0.8-2.3-2.3-2.3h-0.8c-0.6,0-1.4,0.1-2.2,0.2V653z"/>
			<path class="st8" d="M-95.8,653v-0.2c-0.9,0.2-1.9,0.2-3,0.2h-1.2c-4.6,0-6.9-2.1-6.9-6.4v-5.9c0-4.3,2.3-6.5,6.9-6.5h1.3
				c3.2,0,6.1,0.3,8.6,1v17.8c0,2.3-0.6,3.9-1.8,5c-1.2,1.1-3,1.7-5.6,1.7h-1c-2.8,0-5-0.2-6.7-0.5v-4h7.1c0.8,0,1.4-0.2,1.7-0.5
				S-95.8,653.8-95.8,653z M-101.2,641.4v4.7c0,1.5,0.8,2.3,2.3,2.3h1.2c0.7,0,1.3-0.1,1.8-0.2v-8.9c-0.6-0.1-1.4-0.2-2.2-0.2h-0.8
				C-100.4,639-101.2,639.8-101.2,641.4z"/>
			<path class="st8" d="M-69.7,641v4.7h-11v1c0,0.9,0.2,1.5,0.6,1.9s1,0.6,1.8,0.6h7.9v3.7c-2.1,0.3-4.5,0.5-7.1,0.5H-79
				c-2.6,0-4.5-0.6-5.7-1.7c-1.2-1.1-1.8-2.8-1.8-5.1V641c0-2.3,0.6-3.9,1.8-5.1c1.2-1.1,3.1-1.7,5.6-1.7h1.8c2.6,0,4.5,0.6,5.7,1.7
				C-70.3,637.1-69.7,638.8-69.7,641z M-80.7,640.5v1.4h5.3V641c0-1.7-0.7-2.5-2.1-2.5h-1.2c-0.7,0-1.2,0.2-1.6,0.5
				C-80.5,639.4-80.7,639.9-80.7,640.5z"/>
			<path class="st8" d="M-66,628.1h5.7V653H-66V628.1z"/>
			<path class="st8" d="M-46.8,648.3h4.4v-4.8h-4v-4.7h9.9v13.8c-2.3,0.4-4.8,0.7-7.3,0.7h-3.7c-3.1,0-5.3-0.7-6.7-2
				c-1.4-1.3-2-3.5-2-6.4v-8c0-3,0.7-5.1,2-6.4c1.4-1.3,3.6-2,6.7-2h2.6c2.6,0,4.8,0.2,6.8,0.6v4.4h-8.7c-1.1,0-1.9,0.3-2.5,0.8
				c-0.5,0.6-0.8,1.5-0.8,2.7v7.8c0,1.2,0.3,2.1,0.8,2.7C-48.8,648.1-48,648.3-46.8,648.3z"/>
			<path class="st8" d="M-26.6,634.6v11.7c0,1.5,0.8,2.3,2.3,2.3h0.6c0.7,0,1.5-0.1,2.2-0.2v-13.8h5.7v17.7c-2.6,0.7-5.5,1-8.6,1
				h-1.1c-4.6,0-6.9-2.2-6.9-6.5v-12.3H-26.6z"/>
			<path class="st8" d="M-11.5,628.1h5.7V653h-5.7V628.1z"/>
			<path class="st8" d="M10.9,632.1H7.5c-0.5,0-0.9,0.1-1.1,0.3c-0.2,0.2-0.3,0.6-0.3,1.2v1h4.7v4.5H6V653H0.3v-13.9h-3v-4.5h3v-2.2
				c0-1.4,0.4-2.6,1.2-3.4c0.8-0.8,1.9-1.2,3.4-1.2H6c1.7,0,3.3,0.2,4.9,0.5V632.1z"/>
			<path class="st8" d="M16.5,653.3h-0.8c-2,0-3.8-0.2-5.4-0.6v-4.4h5.3c2.1,0,3.2-1.1,3.2-3.3v-16.3h6.1v16.4c0,2.9-0.6,5-1.9,6.2
				C21.6,652.7,19.5,653.3,16.5,653.3z"/>
			<path class="st8" d="M28.9,646.6V641c0-2.3,0.6-3.9,1.8-5.1c1.2-1.1,3.1-1.7,5.6-1.7H39c2.6,0,4.5,0.6,5.7,1.7
				c1.2,1.1,1.8,2.8,1.8,5.1v5.6c0,2.3-0.6,3.9-1.8,5.1c-1.2,1.1-3.1,1.7-5.7,1.7h-2.7c-2.6,0-4.5-0.6-5.6-1.7
				C29.5,650.5,28.9,648.9,28.9,646.6z M40.8,646.4v-4.8c0-1-0.2-1.8-0.5-2.2c-0.4-0.4-1-0.6-1.8-0.6h-1.5c-0.9,0-1.5,0.2-1.8,0.6
				s-0.5,1.2-0.5,2.2v4.4c0,1,0.2,1.7,0.5,2.2c0.4,0.4,1,0.7,1.8,0.7h1.5c0.8,0,1.4-0.2,1.8-0.6C40.6,647.9,40.8,647.3,40.8,646.4z"
				/>
			<path class="st8" d="M55.9,628.1v6.5c1.3-0.2,2.3-0.3,3.1-0.3H60c4.6,0,6.9,2.2,6.9,6.5v6.1c0,4.3-2.3,6.5-6.9,6.5h-1.3
				c-3.1,0-6-0.3-8.6-1v-24.2H55.9z M61.2,646.3v-4.3c0-1-0.2-1.7-0.5-2.2s-0.9-0.7-1.8-0.7h-0.6c-0.9,0-1.7,0.1-2.4,0.2v9.1
				c0.5,0.1,1.3,0.2,2.2,0.2h0.8C60.4,648.6,61.2,647.8,61.2,646.3z"/>
			<path class="st8" d="M77.1,641.3l4.4,0.7c2.7,0.4,4.1,2.2,4.1,5.3v0.6c0,1.8-0.5,3.1-1.5,4c-1,0.9-2.6,1.3-4.8,1.3h-2.2
				c-2.1,0-4.2-0.2-6.2-0.5v-3.9h7.5c0.9,0,1.4-0.4,1.4-1.1v-0.6c0-0.7-0.4-1.1-1.2-1.2l-4.4-0.7c-2.7-0.4-4.1-2.2-4.1-5.2v-0.5
				c0-1.7,0.5-3.1,1.5-4c1-0.9,2.6-1.3,4.8-1.3h1.8c2.2,0,4.2,0.2,6.1,0.5v3.9h-7.2c-0.9,0-1.3,0.3-1.3,1v0.4
				C75.8,640.8,76.2,641.2,77.1,641.3z"/>
			<path class="st8" d="M93.9,652.5c-0.6,0.6-1.3,0.9-2.2,0.9c-0.9,0-1.6-0.3-2.2-0.9c-0.6-0.6-0.9-1.3-0.9-2.2
				c0-0.9,0.3-1.6,0.9-2.2c0.6-0.6,1.3-0.9,2.2-0.9c0.9,0,1.6,0.3,2.2,0.9c0.6,0.6,0.9,1.3,0.9,2.2
				C94.7,651.1,94.4,651.9,93.9,652.5z"/>
			<path class="st8" d="M105.9,648.8h6.6v4.1c-2,0.3-3.9,0.4-5.7,0.4h-1.5c-2.6,0-4.5-0.6-5.6-1.7c-1.2-1.1-1.8-2.8-1.8-5.1V641
				c0-2.3,0.6-3.9,1.8-5.1c1.2-1.1,3.1-1.7,5.6-1.7h1.4c2,0,3.9,0.2,5.7,0.5v4h-6.5c-0.8,0-1.4,0.2-1.8,0.6c-0.4,0.4-0.6,1-0.6,1.8
				v5.2c0,0.9,0.2,1.5,0.6,1.9C104.5,648.6,105.1,648.8,105.9,648.8z"/>
			<path class="st8" d="M115.6,646.6V641c0-2.3,0.6-3.9,1.8-5.1c1.2-1.1,3.1-1.7,5.6-1.7h2.7c2.6,0,4.5,0.6,5.7,1.7
				c1.2,1.1,1.8,2.8,1.8,5.1v5.6c0,2.3-0.6,3.9-1.8,5.1c-1.2,1.1-3.1,1.7-5.7,1.7H123c-2.6,0-4.5-0.6-5.6-1.7
				C116.2,650.5,115.6,648.9,115.6,646.6z M127.5,646.4v-4.8c0-1-0.2-1.8-0.5-2.2c-0.4-0.4-1-0.6-1.8-0.6h-1.5
				c-0.9,0-1.5,0.2-1.8,0.6s-0.5,1.2-0.5,2.2v4.4c0,1,0.2,1.7,0.5,2.2c0.4,0.4,1,0.7,1.8,0.7h1.5c0.8,0,1.4-0.2,1.8-0.6
				C127.3,647.9,127.5,647.3,127.5,646.4z"/>
			<path class="st8" d="M142.6,653h-5.7v-17.7c2.6-0.7,5.2-1,7.7-1h1.3c1.9,0,3.3,0.3,4.2,0.9c1.8-0.6,3.5-0.9,5.3-0.9h1.3
				c2.2,0,3.9,0.6,5,1.7c1.1,1.1,1.7,2.7,1.7,4.8V653h-5.7v-11.7c0-0.8-0.2-1.4-0.7-1.7c-0.4-0.3-1.1-0.5-2.1-0.5h-0.2
				c-0.7,0-1.3,0.1-1.9,0.2c0.1,0.6,0.2,1,0.2,1.4V653h-5.7v-11.8c0-0.8-0.2-1.3-0.5-1.7c-0.3-0.3-0.8-0.5-1.5-0.5h-1
				c-0.5,0-1.1,0.1-1.7,0.2V653z"/>
		</g>
	</g>
</g>
<g id="Layer_6" class="st0">
	<g id="XMLID_22_" class="st1">
		<path id="XMLID_31_" class="st2" d="M-101.9-23c0,0,30.4,20.2,72.6,26.3c0,0,35.6,7.6,49.1,9.2c0,0,46.5,5.8,56.4,23.4
			c0,0,9.9,12.2,14,34.6c0,0,3.1-3.6,3.8-12.2c0,0,0-11.7,13.7-11.4c0,0,3.8-0.3,5.6,6.1c0,0,1,5,6.7,8c0,0,0.4,1.4-1.9,1.8
			c0,0-0.8,1,0.6,1.7c0,0,0.7-0.1-1,1c0,0-0.2,0.5,1,0.4c0,0,0.8-0.2-0.4,1c0,0-0.4,0.8,1.6,1c0,0,0.8,2.5-3.4,3.1
			c0,0-10.2-0.2-14.4,12.1c0,0-2,7.4-2.2,12.6c0,0,1.3,9.9-17.5,11c0,0-10-0.4-35.3,8.5c0,0-28.7,9-44.4,12.2c0,0-11.1,4.8-6.9-2.8
			c0,0,1.1-1.7,0.6-9.7c0,0-11.3-0.1-14-0.6c0,0-3.3,0.6-8.1-1.9c0,0-18.7-7.4-28.3-8.9c0,0-9.3-2.3-14.2-2.9c0,0-10.7-0.6-15.9-3.8
			c0,0-1.9-2,2-2.2c0,0,8.4,1.8,13.5-0.8c0,0,3.8-4.1,6.7-2c0,0,2.8,4.1,6.1,5.8l18.3,0.9c0,0,0.8-0.3-2.2-1.7l-14.9-8.1
			c0,0-2-1.5-9.9-2.2l-9.8-0.9c0,0-2.4-0.8-0.4-1.9c0,0,5,0.8,12.7-3.3c0,0,6.7-6.1,8.3-1.3c0,0,0,5.1,8,7.4l20.6,6.9
			c0,0,4.2,1.8,7,5c0,0,3.2,3.3,11.2,2.4h1.4c0,0-1.1-2-1.4-5c0,0-1.7-7.8,4.7-6.5l39.3,7.1c0,0,10.7,2.9,20.2-0.9
			c0,0,6.7-2.3,7.4-2.7c0,0-8.9,2.7-18.1,1.9c0,0-19.2,1.3-56.6-24.8c0,0-32.7-19.2-39.9-28c0,0,30.4,13.9,40.5,15.6
			c0,0,21.7,7.5,45.6,10.7c0,0,13.6,3.1,29.9-2c0,0-16.4,2.4-32-0.4c0,0-23.1-2.7-56.3-16.8c0,0-26.1-11.1-48.9-30.4
			c0,0-8.1-6.9-15-16.3c0,0,22.4,15.4,58.3,24.4c0,0,16.7,5.5,45.5,10.7c0,0,10.2,2.3,22.5,1.5c0,0-19.2-3.4-25.4-4.8
			c-6.2-1.4-20-3.9-37.6-9.4c0,0-13.6-2.5-46.9-20.6C-69.5,4.2-93.4-9.3-101.9-23z"/>
		<linearGradient id="XMLID_73_" gradientUnits="userSpaceOnUse" x1="-63.8752" y1="50.4199" x2="51.8405" y2="16.0126">
			<stop  offset="0" style="stop-color:#00283B"/>
			<stop  offset="0.54" style="stop-color:#00273A"/>
			<stop  offset="0.8" style="stop-color:#00A2D5"/>
			<stop  offset="1" style="stop-color:#00A2D5"/>
		</linearGradient>
		<path id="XMLID_30_" class="st16" d="M66.4,66.2c0,0-16.4,2.4-32-0.4c0,0-23.1-2.7-56.3-16.8c0,0-26.1-11.1-48.9-30.4
			c0,0-8.1-6.9-15-16.3c0,0,22.4,15.4,58.3,24.4c0,0,16.7,5.5,45.5,10.7c0,0,10.2,2.3,22.5,1.5c12.3-0.8,18.1,2.4,26.9,9.5
			C76.1,55.6,66.4,66.2,66.4,66.2z"/>
		<linearGradient id="XMLID_74_" gradientUnits="userSpaceOnUse" x1="-75.5317" y1="31.0263" x2="52.6329" y2="-10.8557">
			<stop  offset="0" style="stop-color:#00283B"/>
			<stop  offset="0.37" style="stop-color:#00283B"/>
			<stop  offset="0.72" style="stop-color:#00A2D5"/>
			<stop  offset="1" style="stop-color:#00A2D5"/>
		</linearGradient>
		<path id="XMLID_29_" class="st17" d="M40.5,39c0,0-19.2-3.4-25.4-4.8c-6.2-1.4-20-3.9-37.6-9.4c0,0-13.6-2.5-46.9-20.6
			c0,0-23.9-13.5-32.4-27.2c0,0,30.4,20.2,72.6,26.3c0,0,35.6,7.6,49.1,9.2c0,0,46.5,5.8,56.4,23.4C86.1,53.4,53,39.2,53,39.2
			S48.8,37.1,40.5,39z"/>
		<path id="XMLID_24_" class="st5" d="M100.5,37.8c-7.2,0.8-12.9,2.4-12.8,3.4c0.1,1,6,1.1,13.2,0.3c7.2-0.8,12.9-2.4,12.8-3.4
			C113.6,37.1,107.7,37,100.5,37.8L100.5,37.8z M100.7,40.8L100.7,40.8c-5.6,0.7-10.1,0.7-10.2,0.2c-0.1-0.6,4.4-1.5,9.9-2.2
			c5.6-0.7,10.1-0.7,10.2-0.2C110.7,39.2,106.2,40.2,100.7,40.8z"/>
		<linearGradient id="XMLID_75_" gradientUnits="userSpaceOnUse" x1="-23.0478" y1="82.9445" x2="59.5591" y2="46.8203">
			<stop  offset="0" style="stop-color:#002637"/>
			<stop  offset="0.5" style="stop-color:#002E42"/>
			<stop  offset="0.82" style="stop-color:#00A2D5"/>
			<stop  offset="1" style="stop-color:#00A2D5"/>
		</linearGradient>
		<path id="XMLID_23_" class="st18" d="M64.9,92.8c0,0-8.9,2.7-18.1,1.9c0,0-19.2,1.3-56.6-24.8c0,0-32.7-19.2-39.9-28
			c0,0,30.4,13.9,40.5,15.6c0,0,21.7,7.5,45.6,10.7c0,0,13.6,3.1,29.9-2c16.3-5.1,15.1,19.7,15.1,19.7S78.6,96.3,64.9,92.8z"/>
	</g>
	<g id="XMLID_21_" class="st1">
		<path class="st7" d="M-140.5,219.6c-1.1,0-2.2-0.2-3.2-0.7s-1.8-1-2.4-1.8l2.5-1.7c0.3,0.5,0.7,0.8,1.2,1.1
			c0.5,0.3,1.1,0.4,1.8,0.4c1.2,0,2.1-0.3,2.8-1c0.7-0.7,1-1.7,1-2.9v-13.8h3.1V213c0,2.1-0.6,3.7-1.8,4.9S-138.3,219.6-140.5,219.6
			z"/>
		<path class="st7" d="M-122.7,219.6c-2,0-3.6-0.5-4.7-1.6c-1.1-1.1-1.7-2.6-1.7-4.6v-2.4c0-2,0.6-3.5,1.7-4.6
			c1.1-1.1,2.7-1.6,4.7-1.6c2,0,3.6,0.5,4.7,1.6c1.1,1.1,1.7,2.6,1.7,4.6v2.4c0,2-0.6,3.5-1.7,4.6C-119,219-120.6,219.6-122.7,219.6
			z M-122.7,216.9c1.1,0,1.9-0.3,2.5-0.9c0.6-0.6,0.9-1.5,0.9-2.6v-2.4c0-1.1-0.3-2-0.9-2.6c-0.6-0.6-1.4-0.9-2.5-0.9
			c-1.1,0-1.9,0.3-2.5,0.9c-0.6,0.6-0.9,1.5-0.9,2.6v2.4c0,1.1,0.3,2,0.9,2.6C-124.5,216.6-123.7,216.9-122.7,216.9z"/>
		<path class="st7" d="M-111.9,219.4v-20.2h3.1v20.2H-111.9z M-104.9,219.6c-1,0-1.8-0.2-2.5-0.6c-0.7-0.4-1.2-1-1.6-1.8l0.2-3
			c0,0.6,0.1,1.2,0.4,1.6c0.2,0.4,0.6,0.8,1,1c0.5,0.2,1,0.3,1.7,0.3c1,0,1.8-0.3,2.3-0.9c0.6-0.6,0.8-1.4,0.8-2.4v-3.1
			c0-1.1-0.3-1.9-0.8-2.5s-1.3-0.9-2.3-0.9c-0.6,0-1.2,0.1-1.7,0.3c-0.5,0.2-0.8,0.5-1,1c-0.2,0.4-0.4,0.9-0.4,1.6l-0.3-2.8
			c0.5-0.8,1.1-1.5,1.8-2c0.8-0.5,1.6-0.7,2.5-0.7c1.7,0,3,0.5,3.9,1.5s1.4,2.5,1.4,4.3v3.1c0,1.8-0.5,3.3-1.4,4.3
			C-101.9,219.1-103.2,219.6-104.9,219.6z"/>
		<path class="st7" d="M-80.6,210.5c-1.2,0-2.2,0.3-2.9,0.9c-0.7,0.6-1,1.4-1,2.4c0,1,0.4,1.8,1.1,2.4c0.7,0.6,1.7,0.9,3.1,0.9
			c1.9,0,3.3-0.7,4.4-2.1s1.6-3.3,1.6-5.8h2.9c0,2.2-0.4,4.1-1.1,5.7c-0.7,1.6-1.8,2.7-3.2,3.6c-1.4,0.8-3.1,1.2-5.1,1.2
			c-2,0-3.6-0.5-4.8-1.5c-1.1-1-1.7-2.4-1.7-4.3c0-1.7,0.5-3,1.5-4c1-1,2.4-1.6,4.1-1.7L-80.6,210.5z M-73.7,219.4l-8.3-8
			c-1-1-1.8-2.1-2.4-3.2c-0.6-1.1-0.9-2.3-0.9-3.6c0-1.8,0.5-3.1,1.5-4.1c1-1,2.5-1.5,4.3-1.5c1.8,0,3.3,0.5,4.3,1.4
			c1,0.9,1.5,2.3,1.5,4v0.3h-3.1v-0.3c0-0.8-0.2-1.5-0.7-1.9c-0.5-0.5-1.2-0.7-2-0.7c-0.9,0-1.6,0.2-2.1,0.7
			c-0.5,0.5-0.7,1.2-0.7,2.1c0,0.8,0.2,1.7,0.6,2.5c0.4,0.9,1,1.7,1.8,2.5l10,9.8H-73.7z"/>
		<path class="st7" d="M-58.5,219.4v-20.2h3.1v20.2H-58.5z M-57,201.8v-2.7h12.5v2.7H-57z M-57,210.7V208h10.8v2.7H-57z M-57,219.4
			v-2.7h12.5v2.7H-57z"/>
		<path class="st7" d="M-35.6,219.6c-1.7,0-3-0.5-4-1.5c-0.9-1-1.4-2.5-1.4-4.3v-3.2c0-1.9,0.5-3.3,1.4-4.3c0.9-1,2.2-1.5,3.9-1.5
			c0.9,0,1.8,0.2,2.5,0.7s1.4,1.1,1.8,1.9l-0.3,3c0-0.6-0.1-1.1-0.4-1.6s-0.6-0.8-1-1c-0.5-0.2-1-0.3-1.7-0.3c-1,0-1.8,0.3-2.3,0.9
			c-0.6,0.6-0.8,1.4-0.8,2.5v3.1c0,1,0.3,1.9,0.8,2.4c0.6,0.6,1.3,0.9,2.3,0.9c0.6,0,1.2-0.1,1.7-0.4c0.5-0.2,0.8-0.6,1-1
			s0.4-1,0.4-1.6l0.2,3c-0.3,0.6-0.8,1.2-1.4,1.7C-33.6,219.4-34.5,219.6-35.6,219.6z M-31.7,219.4v-20.2h3.1v20.2H-31.7z"/>
		<path class="st7" d="M-20.9,204.9v8.8c0,1,0.3,1.8,0.8,2.3s1.3,0.8,2.3,0.8c1,0,1.8-0.2,2.3-0.7c0.5-0.5,0.8-1.2,0.8-2.1l0.2,3
			c-0.3,0.6-0.8,1.2-1.5,1.7c-0.7,0.5-1.6,0.8-2.7,0.8c-1.7,0-3-0.5-4-1.5c-0.9-1-1.4-2.5-1.4-4.3v-8.8H-20.9z M-14.6,219.4v-14.4h3
			v14.4H-14.6z"/>
		<path class="st7" d="M-0.7,219.6c-2.1,0-3.8-0.5-5-1.6c-1.2-1.1-1.8-2.6-1.8-4.6v-2.4c0-2,0.6-3.5,1.8-4.6c1.2-1.1,2.8-1.6,5-1.6
			c1.2,0,2.3,0.2,3.3,0.6s1.8,1,2.3,1.7l-2.2,1.8c-0.4-0.5-0.9-0.8-1.5-1.1c-0.6-0.3-1.2-0.4-1.9-0.4c-1.2,0-2.1,0.3-2.7,0.9
			c-0.6,0.6-1,1.5-1,2.6v2.4c0,1.1,0.3,2,1,2.6c0.6,0.6,1.6,0.9,2.7,0.9c0.6,0,1.3-0.1,1.9-0.4c0.6-0.3,1.1-0.6,1.5-1.1l2.2,2
			c-0.6,0.7-1.4,1.3-2.3,1.7C1.7,219.4,0.6,219.6-0.7,219.6z"/>
		<path class="st7" d="M13.3,219.6c-1.9,0-3.3-0.4-4.3-1.1s-1.4-1.9-1.4-3.4c0-1.4,0.4-2.5,1.3-3.2c0.9-0.7,2.2-1.1,3.9-1.1h4.4
			l0.2,2.3h-4.6c-0.8,0-1.4,0.2-1.8,0.5c-0.4,0.3-0.6,0.8-0.6,1.5c0,0.7,0.3,1.3,0.8,1.6c0.5,0.4,1.3,0.5,2.4,0.5
			c1.2,0,2-0.1,2.6-0.3c0.6-0.2,0.9-0.6,0.9-1.1l0.3,2c-0.3,0.4-0.6,0.7-1,1c-0.4,0.3-0.9,0.4-1.4,0.6
			C14.5,219.5,14,219.6,13.3,219.6z M17.1,219.4v-9.2c0-0.9-0.3-1.7-0.8-2.2s-1.3-0.8-2.3-0.8c-0.6,0-1.2,0.1-1.8,0.3
			s-1.1,0.4-1.6,0.7l-2.2-1.4c0.6-0.7,1.4-1.2,2.3-1.5c1-0.4,2-0.5,3.2-0.5c1.9,0,3.5,0.5,4.5,1.4s1.6,2.3,1.6,4v9.3H17.1z"/>
		<path class="st7" d="M23.5,207.5v-2.6h7v2.6H23.5z M28.7,219.4c-1.3,0-2.2-0.3-2.8-1c-0.6-0.7-0.9-1.6-0.9-2.8v-14.9h3.1v14.9
			c0,0.3,0.1,0.6,0.2,0.8s0.4,0.3,0.7,0.3h1.5v2.7H28.7z"/>
		<path class="st7" d="M34.6,202v-2.8h3.1v2.8H34.6z M34.6,219.4v-14.4h3.1v14.4H34.6z"/>
		<path class="st7" d="M48.3,219.6c-2,0-3.6-0.5-4.7-1.6c-1.1-1.1-1.7-2.6-1.7-4.6v-2.4c0-2,0.6-3.5,1.7-4.6s2.7-1.6,4.7-1.6
			s3.6,0.5,4.7,1.6s1.7,2.6,1.7,4.6v2.4c0,2-0.6,3.5-1.7,4.6S50.3,219.6,48.3,219.6z M48.3,216.9c1.1,0,1.9-0.3,2.5-0.9
			c0.6-0.6,0.9-1.5,0.9-2.6v-2.4c0-1.1-0.3-2-0.9-2.6c-0.6-0.6-1.4-0.9-2.5-0.9c-1.1,0-1.9,0.3-2.5,0.9s-0.9,1.5-0.9,2.6v2.4
			c0,1.1,0.3,2,0.9,2.6S47.2,216.9,48.3,216.9z"/>
		<path class="st7" d="M59,219.4v-14.4h3.1v14.4H59z M68.5,219.4v-8.8c0-1-0.3-1.8-0.8-2.4s-1.4-0.8-2.4-0.8c-1,0-1.8,0.2-2.3,0.7
			c-0.5,0.5-0.8,1.2-0.8,2.1l-0.3-2.8c0.5-0.9,1.1-1.5,1.9-2c0.8-0.5,1.6-0.7,2.6-0.7c1.7,0,3,0.5,3.9,1.5c0.9,1,1.4,2.5,1.4,4.3
			v8.8H68.5z"/>
		<path class="st7" d="M84.7,219.4v-20.2h3.1v20.2H84.7z M86.3,211.5v-2.7h7c1,0,1.8-0.3,2.4-1c0.6-0.6,0.9-1.5,0.9-2.5
			c0-1.1-0.3-1.9-0.9-2.5c-0.6-0.6-1.4-1-2.4-1h-7v-2.7h6.9c1.3,0,2.5,0.3,3.4,0.8c1,0.5,1.7,1.2,2.3,2.2c0.5,0.9,0.8,2,0.8,3.3
			c0,1.2-0.3,2.3-0.8,3.3s-1.3,1.6-2.3,2.2c-1,0.5-2.1,0.8-3.4,0.8H86.3z"/>
		<path class="st7" d="M108.1,219.6c-2,0-3.6-0.5-4.7-1.6c-1.1-1.1-1.7-2.6-1.7-4.6v-2.4c0-2,0.6-3.5,1.7-4.6s2.7-1.6,4.7-1.6
			s3.6,0.5,4.7,1.6s1.7,2.6,1.7,4.6v2.4c0,2-0.6,3.5-1.7,4.6S110.1,219.6,108.1,219.6z M108.1,216.9c1.1,0,1.9-0.3,2.5-0.9
			c0.6-0.6,0.9-1.5,0.9-2.6v-2.4c0-1.1-0.3-2-0.9-2.6c-0.6-0.6-1.4-0.9-2.5-0.9c-1.1,0-1.9,0.3-2.5,0.9s-0.9,1.5-0.9,2.6v2.4
			c0,1.1,0.3,2,0.9,2.6S107,216.9,108.1,216.9z"/>
		<path class="st7" d="M118.8,219.4v-14.4h3.1v14.4H118.8z M127.4,208.4c-0.3-0.3-0.6-0.5-1-0.7s-0.9-0.2-1.4-0.2
			c-1,0-1.7,0.2-2.3,0.7c-0.5,0.5-0.8,1.2-0.8,2.1l-0.3-2.8c0.5-0.9,1.1-1.5,1.8-2c0.8-0.5,1.6-0.7,2.5-0.7c0.7,0,1.3,0.1,1.9,0.3
			c0.6,0.2,1.1,0.5,1.5,0.8L127.4,208.4z"/>
		<path class="st7" d="M130.7,207.5v-2.6h7v2.6H130.7z M135.9,219.4c-1.3,0-2.2-0.3-2.8-1c-0.6-0.7-0.9-1.6-0.9-2.8v-14.9h3.1v14.9
			c0,0.3,0.1,0.6,0.2,0.8s0.4,0.3,0.7,0.3h1.5v2.7H135.9z"/>
		<path class="st7" d="M146.9,219.6c-1.9,0-3.3-0.4-4.3-1.1c-1-0.7-1.4-1.9-1.4-3.4c0-1.4,0.4-2.5,1.3-3.2c0.9-0.7,2.2-1.1,3.9-1.1
			h4.4l0.2,2.3h-4.6c-0.8,0-1.4,0.2-1.8,0.5c-0.4,0.3-0.6,0.8-0.6,1.5c0,0.7,0.3,1.3,0.8,1.6c0.5,0.4,1.3,0.5,2.4,0.5
			c1.2,0,2-0.1,2.6-0.3c0.6-0.2,0.9-0.6,0.9-1.1l0.3,2c-0.3,0.4-0.6,0.7-1,1c-0.4,0.3-0.9,0.4-1.4,0.6
			C148.1,219.5,147.5,219.6,146.9,219.6z M150.7,219.4v-9.2c0-0.9-0.3-1.7-0.8-2.2s-1.3-0.8-2.3-0.8c-0.6,0-1.2,0.1-1.8,0.3
			s-1.1,0.4-1.6,0.7l-2.2-1.4c0.6-0.7,1.4-1.2,2.3-1.5c1-0.4,2-0.5,3.2-0.5c1.9,0,3.5,0.5,4.5,1.4s1.6,2.3,1.6,4v9.3H150.7z"/>
		<path class="st7" d="M161.3,199.1v16.5c0,0.3,0.1,0.6,0.2,0.8c0.2,0.2,0.4,0.3,0.7,0.3h1.4v2.7h-1.8c-1.1,0-2-0.3-2.7-1
			s-1-1.6-1-2.8v-16.5H161.3z"/>
	</g>
	<g id="XMLID_20_" class="st1">
		<path class="st8" d="M-193.3,181.1l-1.7-5.3h-10.7l-1.7,5.3h-7.9l10.6-30.9h8.6l10.6,30.9H-193.3z M-200.4,159.1l-3.4,10.5h6.8
			L-200.4,159.1z"/>
		<path class="st8" d="M-175.7,181.1h-7.2v-22.6c3.2-0.9,6.8-1.3,10.8-1.3h1.5c5.8,0,8.7,2.8,8.7,8.3v15.6h-7.2v-14.9
			c0-2-1-2.9-2.9-2.9h-1c-0.8,0-1.7,0.1-2.8,0.3V181.1z"/>
		<path class="st8" d="M-143.4,181.1v-0.2c-1.1,0.2-2.4,0.3-3.7,0.3h-1.5c-5.8,0-8.7-2.7-8.7-8.2v-7.5c0-5.5,2.9-8.3,8.7-8.3h1.6
			c4,0,7.6,0.4,10.8,1.3v22.7c0,2.9-0.7,5-2.2,6.4c-1.5,1.4-3.8,2.1-7,2.1h-1.2c-3.5,0-6.3-0.2-8.4-0.7V184h8.9c1,0,1.7-0.2,2.2-0.7
			C-143.6,182.9-143.4,182.1-143.4,181.1z M-150.1,166.3v5.9c0,2,1,2.9,2.9,2.9h1.5c0.9,0,1.7-0.1,2.3-0.2v-11.4
			c-0.8-0.2-1.7-0.3-2.8-0.3h-1C-149.1,163.3-150.1,164.3-150.1,166.3z"/>
		<path class="st8" d="M-110.6,165.9v5.9h-13.8v1.3c0,1.1,0.2,1.9,0.7,2.4s1.2,0.7,2.2,0.7h9.9v4.7c-2.6,0.4-5.6,0.7-9,0.7h-1.7
			c-3.3,0-5.6-0.7-7.1-2.1c-1.5-1.4-2.2-3.6-2.2-6.4v-7.1c0-2.9,0.7-5,2.2-6.5c1.5-1.4,3.8-2.2,7.1-2.2h2.3c3.3,0,5.6,0.7,7.1,2.2
			C-111.3,160.8-110.6,163-110.6,165.9z M-124.4,165.2v1.8h6.7v-1.1c0-2.1-0.9-3.2-2.6-3.2h-1.5c-0.9,0-1.5,0.2-1.9,0.7
			C-124.2,163.7-124.4,164.4-124.4,165.2z"/>
		<path class="st8" d="M-105.9,149.4h7.2v31.8h-7.2V149.4z"/>
		<path class="st8" d="M-70.4,172.2H-77v8.9h-7.6v-30.9h14.2c3.4,0,5.8,0.7,7.4,2.2c1.6,1.5,2.3,3.8,2.3,7.1v3.4
			c0,3.2-0.8,5.6-2.3,7.1C-64.6,171.5-67,172.2-70.4,172.2z M-77,166.1h5.3c2.3,0,3.4-1.1,3.4-3.3v-2.9c0-2.2-1.1-3.3-3.4-3.3H-77
			V166.1z"/>
		<path class="st8" d="M-56.3,172.9v-7.1c0-2.9,0.7-5,2.2-6.5c1.5-1.4,3.8-2.2,7.1-2.2h3.4c3.3,0,5.6,0.7,7.1,2.2
			c1.5,1.4,2.2,3.6,2.2,6.5v7.1c0,2.9-0.7,5-2.2,6.4s-3.9,2.1-7.1,2.1H-47c-3.2,0-5.6-0.7-7.1-2.1S-56.3,175.8-56.3,172.9z
			 M-41.4,172.7v-6.1c0-1.3-0.2-2.3-0.7-2.8c-0.4-0.5-1.2-0.8-2.3-0.8h-1.8c-1.1,0-1.9,0.3-2.3,0.8c-0.4,0.5-0.6,1.5-0.6,2.8v5.6
			c0,1.3,0.2,2.2,0.7,2.8c0.4,0.6,1.2,0.8,2.3,0.8h1.8c1,0,1.8-0.2,2.2-0.7C-41.6,174.6-41.4,173.8-41.4,172.7z"/>
		<path class="st8" d="M-21.2,157.2h0.8c2.7,0,5.1,0.2,7.4,0.6v5.1h-6.8c-1.8,0-2.7,0.9-2.7,2.7v15.4h-7.2v-15.8
			C-29.7,160-26.9,157.2-21.2,157.2z"/>
		<path class="st8" d="M2.6,175.8h4.9v5.1c-1.9,0.4-3.9,0.6-6,0.6h-1.8c-2.1,0-3.8-0.6-5-1.9c-1.2-1.3-1.8-2.9-1.8-5.1v-11.2h-3.7
			v-5.8h3.7v-6.1H0v6.1h7.3v5.8H0v9.8C0,174.9,0.9,175.8,2.6,175.8z"/>
		<path class="st8" d="M32,165.5v15c-3.1,0.6-6.7,1-10.5,1h-2.3c-2.5,0-4.5-0.6-5.8-1.7c-1.3-1.2-2-2.8-2-4.9v-1.6
			c0-2.1,0.7-3.8,2-5c1.3-1.2,3.3-1.7,5.8-1.7h1.5c1.4,0,2.8,0.1,4.2,0.3v-1.5c0-1.9-0.9-2.8-2.8-2.8h-8.7v-4.7
			c2.7-0.5,5.7-0.7,8.9-0.7h1.1C29.1,157.2,32,160,32,165.5z M22.1,171.6h-1.4c-1.5,0-2.3,0.6-2.3,1.9v0.7c0,1.3,0.8,1.9,2.3,1.9
			h1.6c1.1,0,2-0.1,2.5-0.2v-4.2C24.1,171.7,23.2,171.6,22.1,171.6z"/>
		<path class="st8" d="M37.2,149.4h7.2v31.8h-7.2V149.4z"/>
		<path class="st8" d="M72.8,172.2h-6.6v8.9h-7.6v-30.9h14.2c3.4,0,5.8,0.7,7.4,2.2c1.6,1.5,2.3,3.8,2.3,7.1v3.4
			c0,3.2-0.8,5.6-2.3,7.1C78.6,171.5,76.1,172.2,72.8,172.2z M66.2,166.1h5.3c2.3,0,3.4-1.1,3.4-3.3v-2.9c0-2.2-1.1-3.3-3.4-3.3
			h-5.3V166.1z"/>
		<path class="st8" d="M97.8,172.4l4.9-14.7h7.2l-8.1,23.5h-8.1l-8.1-23.5h7.2L97.8,172.4z"/>
		<path class="st8" d="M125.4,175.8h4.9v5.1c-1.9,0.4-3.9,0.6-6,0.6h-1.8c-2.1,0-3.8-0.6-5-1.9c-1.2-1.3-1.8-2.9-1.8-5.1v-11.2H112
			v-5.8h3.7v-6.1h7.2v6.1h7.3v5.8h-7.3v9.8C122.9,174.9,123.7,175.8,125.4,175.8z"/>
		<path class="st9" d="M140.4,180.4c-0.7,0.8-1.6,1.1-2.7,1.1c-1.1,0-2-0.4-2.7-1.1c-0.7-0.8-1.1-1.7-1.1-2.8c0-1.1,0.4-2,1.1-2.8
			c0.7-0.8,1.6-1.1,2.7-1.1c1.1,0,2,0.4,2.7,1.1c0.7,0.8,1.1,1.7,1.1,2.8C141.5,178.7,141.1,179.7,140.4,180.4z"/>
		<path class="st8" d="M155,150.2h7.6v24.5h13.2v6.4H155V150.2z"/>
		<path class="st8" d="M189.9,175.8h4.9v5.1c-1.9,0.4-3.9,0.6-6,0.6H187c-2.1,0-3.8-0.6-5-1.9c-1.2-1.3-1.8-2.9-1.8-5.1v-11.2h-3.7
			v-5.8h3.7v-6.1h7.2v6.1h7.3v5.8h-7.3v9.8C187.3,174.9,188.2,175.8,189.9,175.8z"/>
		<path class="st8" d="M219.4,149.4v30.9c-3.1,0.9-6.7,1.3-10.8,1.3H207c-5.8,0-8.7-2.7-8.7-8.2v-7.8c0-5.5,2.9-8.3,8.7-8.3h1.5
			c0.9,0,2.1,0.1,3.7,0.4v-8.2H219.4z M205.5,166.3v6.3c0,2,1,2.9,2.9,2.9h0.8c1,0,2-0.1,3-0.2v-11.7c-0.9-0.2-1.8-0.3-2.9-0.3h-0.9
			C206.5,163.3,205.5,164.3,205.5,166.3z"/>
		<path class="st9" d="M230.5,180.4c-0.7,0.8-1.6,1.1-2.7,1.1c-1.1,0-2-0.4-2.7-1.1c-0.7-0.8-1.1-1.7-1.1-2.8c0-1.1,0.4-2,1.1-2.8
			c0.7-0.8,1.6-1.1,2.7-1.1c1.1,0,2,0.4,2.7,1.1c0.7,0.8,1.1,1.7,1.1,2.8C231.6,178.7,231.2,179.7,230.5,180.4z"/>
	</g>
	<g id="XMLID_32_" class="st1">
		<path id="XMLID_39_" class="st2" d="M-101.9,319c0,0,30.4,20.2,72.6,26.3c0,0,35.6,7.6,49.1,9.2c0,0,46.5,5.8,56.4,23.4
			c0,0,9.9,12.2,14,34.6c0,0,3.1-3.6,3.8-12.2c0,0,0-11.7,13.7-11.4c0,0,3.8-0.3,5.6,6.1c0,0,1,5,6.7,8c0,0,0.4,1.4-1.9,1.8
			c0,0-0.8,1,0.6,1.7c0,0,0.7-0.1-1,1c0,0-0.2,0.5,1,0.4c0,0,0.8-0.2-0.4,1c0,0-0.4,0.8,1.6,1c0,0,0.8,2.5-3.4,3.1
			c0,0-10.2-0.2-14.4,12.1c0,0-2,7.4-2.2,12.6c0,0,1.3,9.9-17.5,11c0,0-10-0.4-35.3,8.5c0,0-28.7,9-44.4,12.2c0,0-11.1,4.8-6.9-2.8
			c0,0,1.1-1.7,0.6-9.7c0,0-11.3-0.1-14-0.6c0,0-3.3,0.6-8.1-1.9c0,0-18.7-7.4-28.3-8.9c0,0-9.3-2.3-14.2-2.9c0,0-10.7-0.6-15.9-3.8
			c0,0-1.9-2,2-2.2c0,0,8.4,1.8,13.5-0.8c0,0,3.8-4.1,6.7-2c0,0,2.8,4.1,6.1,5.8l18.3,0.9c0,0,0.8-0.3-2.2-1.7l-14.9-8.1
			c0,0-2-1.5-9.9-2.2l-9.8-0.9c0,0-2.4-0.8-0.4-1.9c0,0,5,0.8,12.7-3.3c0,0,6.7-6.1,8.3-1.3c0,0,0,5.1,8,7.4l20.6,6.9
			c0,0,4.2,1.8,7,5c0,0,3.2,3.3,11.2,2.4h1.4c0,0-1.1-2-1.4-5c0,0-1.7-7.8,4.7-6.5l39.3,7.1c0,0,10.7,2.9,20.2-0.9
			c0,0,6.7-2.3,7.4-2.7c0,0-8.9,2.7-18.1,1.9c0,0-19.2,1.3-56.6-24.8c0,0-32.7-19.2-39.9-28c0,0,30.4,13.9,40.5,15.6
			c0,0,21.7,7.5,45.6,10.7c0,0,13.6,3.1,29.9-2c0,0-16.4,2.4-32-0.4c0,0-23.1-2.7-56.3-16.8c0,0-26.1-11.1-48.9-30.4
			c0,0-8.1-6.9-15-16.3c0,0,22.4,15.4,58.3,24.4c0,0,16.7,5.5,45.5,10.7c0,0,10.2,2.3,22.5,1.5c0,0-19.2-3.4-25.4-4.8
			c-6.2-1.4-20-3.9-37.6-9.4c0,0-13.6-2.5-46.9-20.6C-69.5,346.2-93.4,332.7-101.9,319z"/>
		<linearGradient id="XMLID_76_" gradientUnits="userSpaceOnUse" x1="-63.8753" y1="392.4199" x2="51.8404" y2="358.0126">
			<stop  offset="0" style="stop-color:#00283B"/>
			<stop  offset="0.54" style="stop-color:#00273A"/>
			<stop  offset="0.8" style="stop-color:#00A2D5"/>
			<stop  offset="1" style="stop-color:#00A2D5"/>
		</linearGradient>
		<path id="XMLID_38_" class="st19" d="M66.4,408.2c0,0-16.4,2.4-32-0.4c0,0-23.1-2.7-56.3-16.8c0,0-26.1-11.1-48.9-30.4
			c0,0-8.1-6.9-15-16.3c0,0,22.4,15.4,58.3,24.4c0,0,16.7,5.5,45.5,10.7c0,0,10.2,2.3,22.5,1.5c12.3-0.8,18.1,2.4,26.9,9.5
			C76.1,397.6,66.4,408.2,66.4,408.2z"/>
		<linearGradient id="XMLID_77_" gradientUnits="userSpaceOnUse" x1="-75.5317" y1="373.0263" x2="52.6328" y2="331.1443">
			<stop  offset="0" style="stop-color:#00283B"/>
			<stop  offset="0.37" style="stop-color:#00283B"/>
			<stop  offset="0.72" style="stop-color:#00A2D5"/>
			<stop  offset="1" style="stop-color:#00A2D5"/>
		</linearGradient>
		<path id="XMLID_37_" class="st20" d="M40.5,381c0,0-19.2-3.4-25.4-4.8c-6.2-1.4-20-3.9-37.6-9.4c0,0-13.6-2.5-46.9-20.6
			c0,0-23.9-13.5-32.4-27.2c0,0,30.4,20.2,72.6,26.3c0,0,35.6,7.6,49.1,9.2c0,0,46.5,5.8,56.4,23.4c9.9,17.5-23.2,3.3-23.2,3.3
			S48.8,379.1,40.5,381z"/>
		<path id="XMLID_34_" class="st5" d="M100.5,379.8c-7.2,0.8-12.9,2.4-12.8,3.4c0.1,1,6,1.1,13.2,0.3c7.2-0.8,12.9-2.4,12.8-3.4
			C113.6,379.1,107.7,379,100.5,379.8L100.5,379.8z M100.7,382.8L100.7,382.8c-5.6,0.7-10.1,0.7-10.2,0.2c-0.1-0.6,4.4-1.5,9.9-2.2
			c5.6-0.7,10.1-0.7,10.2-0.2C110.7,381.2,106.2,382.2,100.7,382.8z"/>
		<linearGradient id="XMLID_78_" gradientUnits="userSpaceOnUse" x1="-23.0479" y1="424.9445" x2="59.559" y2="388.8203">
			<stop  offset="0" style="stop-color:#002637"/>
			<stop  offset="0.5" style="stop-color:#002E42"/>
			<stop  offset="0.82" style="stop-color:#00A2D5"/>
			<stop  offset="1" style="stop-color:#00A2D5"/>
		</linearGradient>
		<path id="XMLID_33_" class="st21" d="M64.9,434.8c0,0-8.9,2.7-18.1,1.9c0,0-19.2,1.3-56.6-24.8c0,0-32.7-19.2-39.9-28
			c0,0,30.4,13.9,40.5,15.6c0,0,21.7,7.5,45.6,10.7c0,0,13.6,3.1,29.9-2c16.3-5.1,15.1,19.7,15.1,19.7S78.6,438.3,64.9,434.8z"/>
	</g>
	<g id="XMLID_19_" class="st1">
		<path class="st7" d="M-140.5,561.6c-1.1,0-2.2-0.2-3.2-0.7c-1-0.4-1.8-1-2.4-1.8l2.5-1.7c0.3,0.5,0.7,0.8,1.2,1.1
			c0.5,0.3,1.1,0.4,1.8,0.4c1.2,0,2.1-0.3,2.8-1c0.7-0.7,1-1.7,1-2.9v-13.8h3.1V555c0,2.1-0.6,3.7-1.8,4.9
			C-136.7,561-138.3,561.6-140.5,561.6z"/>
		<path class="st7" d="M-122.7,561.6c-2,0-3.6-0.5-4.7-1.6c-1.1-1.1-1.7-2.6-1.7-4.6v-2.4c0-2,0.6-3.5,1.7-4.6
			c1.1-1.1,2.7-1.6,4.7-1.6c2,0,3.6,0.5,4.7,1.6c1.1,1.1,1.7,2.6,1.7,4.6v2.4c0,2-0.6,3.5-1.7,4.6C-119,561-120.6,561.6-122.7,561.6
			z M-122.7,558.9c1.1,0,1.9-0.3,2.5-0.9c0.6-0.6,0.9-1.5,0.9-2.6v-2.4c0-1.1-0.3-2-0.9-2.6c-0.6-0.6-1.4-0.9-2.5-0.9
			c-1.1,0-1.9,0.3-2.5,0.9c-0.6,0.6-0.9,1.5-0.9,2.6v2.4c0,1.1,0.3,2,0.9,2.6C-124.5,558.6-123.7,558.9-122.7,558.9z"/>
		<path class="st7" d="M-111.9,561.4v-20.2h3.1v20.2H-111.9z M-104.9,561.6c-1,0-1.8-0.2-2.5-0.6c-0.7-0.4-1.2-1-1.6-1.8l0.2-3
			c0,0.6,0.1,1.2,0.4,1.6c0.2,0.4,0.6,0.8,1,1c0.5,0.2,1,0.3,1.7,0.3c1,0,1.8-0.3,2.3-0.9c0.6-0.6,0.8-1.4,0.8-2.4v-3.1
			c0-1.1-0.3-1.9-0.8-2.5c-0.6-0.6-1.3-0.9-2.3-0.9c-0.6,0-1.2,0.1-1.7,0.3c-0.5,0.2-0.8,0.5-1,1c-0.2,0.4-0.4,0.9-0.4,1.6l-0.3-2.8
			c0.5-0.8,1.1-1.5,1.8-2c0.8-0.5,1.6-0.7,2.5-0.7c1.7,0,3,0.5,3.9,1.5c0.9,1,1.4,2.5,1.4,4.3v3.1c0,1.8-0.5,3.3-1.4,4.3
			C-101.9,561.1-103.2,561.6-104.9,561.6z"/>
		<path class="st7" d="M-80.6,552.5c-1.2,0-2.2,0.3-2.9,0.9c-0.7,0.6-1,1.4-1,2.4c0,1,0.4,1.8,1.1,2.4c0.7,0.6,1.7,0.9,3.1,0.9
			c1.9,0,3.3-0.7,4.4-2.1c1-1.4,1.6-3.3,1.6-5.8h2.9c0,2.2-0.4,4.1-1.1,5.7c-0.7,1.6-1.8,2.7-3.2,3.6s-3.1,1.2-5.1,1.2
			c-2,0-3.6-0.5-4.8-1.5c-1.1-1-1.7-2.4-1.7-4.3c0-1.7,0.5-3,1.5-4c1-1,2.4-1.6,4.1-1.7L-80.6,552.5z M-73.7,561.4l-8.3-8
			c-1-1-1.8-2.1-2.4-3.2c-0.6-1.1-0.9-2.3-0.9-3.6c0-1.8,0.5-3.1,1.5-4.1s2.5-1.5,4.3-1.5c1.8,0,3.3,0.5,4.3,1.4
			c1,0.9,1.5,2.3,1.5,4v0.3h-3.1v-0.3c0-0.8-0.2-1.5-0.7-1.9c-0.5-0.5-1.2-0.7-2-0.7c-0.9,0-1.6,0.2-2.1,0.7
			c-0.5,0.5-0.7,1.2-0.7,2.1c0,0.8,0.2,1.7,0.6,2.5c0.4,0.9,1,1.7,1.8,2.5l10,9.8H-73.7z"/>
		<path class="st7" d="M-58.5,561.4v-20.2h3.1v20.2H-58.5z M-57,543.8v-2.7h12.5v2.7H-57z M-57,552.7V550h10.8v2.7H-57z M-57,561.4
			v-2.7h12.5v2.7H-57z"/>
		<path class="st7" d="M-35.6,561.6c-1.7,0-3-0.5-4-1.5c-0.9-1-1.4-2.5-1.4-4.3v-3.2c0-1.9,0.5-3.3,1.4-4.3c0.9-1,2.2-1.5,3.9-1.5
			c0.9,0,1.8,0.2,2.5,0.7s1.4,1.1,1.8,1.9l-0.3,3c0-0.6-0.1-1.1-0.4-1.6c-0.2-0.4-0.6-0.8-1-1s-1-0.3-1.7-0.3c-1,0-1.8,0.3-2.3,0.9
			c-0.6,0.6-0.8,1.4-0.8,2.5v3.1c0,1,0.3,1.9,0.8,2.4s1.3,0.9,2.3,0.9c0.6,0,1.2-0.1,1.7-0.4s0.8-0.6,1-1s0.4-1,0.4-1.6l0.2,3
			c-0.3,0.7-0.8,1.2-1.4,1.7S-34.5,561.6-35.6,561.6z M-31.7,561.4v-20.2h3.1v20.2H-31.7z"/>
		<path class="st7" d="M-20.9,546.9v8.8c0,1,0.3,1.8,0.8,2.3s1.3,0.8,2.3,0.8c1,0,1.8-0.2,2.3-0.7c0.5-0.5,0.8-1.2,0.8-2.1l0.2,3
			c-0.3,0.6-0.8,1.2-1.5,1.7c-0.7,0.5-1.6,0.8-2.7,0.8c-1.7,0-3-0.5-4-1.5c-0.9-1-1.4-2.5-1.4-4.3v-8.8H-20.9z M-14.6,561.4v-14.4h3
			v14.4H-14.6z"/>
		<path class="st7" d="M-0.7,561.6c-2.1,0-3.8-0.5-5-1.6c-1.2-1.1-1.8-2.6-1.8-4.6v-2.4c0-2,0.6-3.5,1.8-4.6c1.2-1.1,2.8-1.6,5-1.6
			c1.2,0,2.3,0.2,3.3,0.6c1,0.4,1.8,1,2.3,1.7l-2.2,1.8c-0.4-0.5-0.9-0.8-1.5-1.1c-0.6-0.3-1.2-0.4-1.9-0.4c-1.2,0-2.1,0.3-2.7,0.9
			c-0.6,0.6-1,1.5-1,2.6v2.4c0,1.1,0.3,2,1,2.6c0.6,0.6,1.6,0.9,2.7,0.9c0.6,0,1.3-0.1,1.9-0.4c0.6-0.3,1.1-0.6,1.5-1.1l2.2,2
			c-0.6,0.7-1.4,1.3-2.3,1.7C1.7,561.4,0.6,561.6-0.7,561.6z"/>
		<path class="st7" d="M13.3,561.6c-1.9,0-3.3-0.4-4.3-1.1c-1-0.7-1.4-1.9-1.4-3.4c0-1.4,0.4-2.5,1.3-3.2c0.9-0.7,2.2-1.1,3.9-1.1
			h4.4l0.2,2.3h-4.6c-0.8,0-1.4,0.2-1.8,0.5c-0.4,0.3-0.6,0.8-0.6,1.5c0,0.7,0.3,1.3,0.8,1.6c0.5,0.4,1.3,0.5,2.4,0.5
			c1.2,0,2-0.1,2.6-0.3c0.6-0.2,0.9-0.6,0.9-1.1l0.3,2c-0.3,0.4-0.6,0.7-1,1c-0.4,0.3-0.9,0.4-1.4,0.6
			C14.5,561.5,14,561.6,13.3,561.6z M17.1,561.4v-9.2c0-0.9-0.3-1.7-0.8-2.2c-0.5-0.5-1.3-0.8-2.3-0.8c-0.6,0-1.2,0.1-1.8,0.3
			s-1.1,0.4-1.6,0.7l-2.2-1.4c0.6-0.7,1.4-1.2,2.3-1.5s2-0.5,3.2-0.5c1.9,0,3.5,0.5,4.5,1.4c1.1,0.9,1.6,2.3,1.6,4v9.3H17.1z"/>
		<path class="st7" d="M23.5,549.5v-2.6h7v2.6H23.5z M28.7,561.4c-1.3,0-2.2-0.3-2.8-1c-0.6-0.7-0.9-1.6-0.9-2.8v-14.9h3.1v14.9
			c0,0.3,0.1,0.6,0.2,0.8c0.1,0.2,0.4,0.3,0.7,0.3h1.5v2.7H28.7z"/>
		<path class="st7" d="M34.6,544v-2.8h3.1v2.8H34.6z M34.6,561.4v-14.4h3.1v14.4H34.6z"/>
		<path class="st7" d="M48.3,561.6c-2,0-3.6-0.5-4.7-1.6c-1.1-1.1-1.7-2.6-1.7-4.6v-2.4c0-2,0.6-3.5,1.7-4.6
			c1.1-1.1,2.7-1.6,4.7-1.6s3.6,0.5,4.7,1.6c1.1,1.1,1.7,2.6,1.7,4.6v2.4c0,2-0.6,3.5-1.7,4.6C51.9,561,50.3,561.6,48.3,561.6z
			 M48.3,558.9c1.1,0,1.9-0.3,2.5-0.9c0.6-0.6,0.9-1.5,0.9-2.6v-2.4c0-1.1-0.3-2-0.9-2.6c-0.6-0.6-1.4-0.9-2.5-0.9
			c-1.1,0-1.9,0.3-2.5,0.9s-0.9,1.5-0.9,2.6v2.4c0,1.1,0.3,2,0.9,2.6C46.4,558.6,47.2,558.9,48.3,558.9z"/>
		<path class="st7" d="M59,561.4v-14.4h3.1v14.4H59z M68.5,561.4v-8.8c0-1-0.3-1.8-0.8-2.4s-1.4-0.8-2.4-0.8c-1,0-1.8,0.2-2.3,0.7
			c-0.5,0.5-0.8,1.2-0.8,2.1l-0.3-2.8c0.5-0.9,1.1-1.5,1.9-2c0.8-0.5,1.6-0.7,2.6-0.7c1.7,0,3,0.5,3.9,1.5c0.9,1,1.4,2.5,1.4,4.3
			v8.8H68.5z"/>
		<path class="st7" d="M84.7,561.4v-20.2h3.1v20.2H84.7z M86.3,553.5v-2.7h7c1,0,1.8-0.3,2.4-1c0.6-0.6,0.9-1.5,0.9-2.5
			c0-1.1-0.3-1.9-0.9-2.5c-0.6-0.6-1.4-1-2.4-1h-7v-2.7h6.9c1.3,0,2.5,0.3,3.4,0.8c1,0.5,1.7,1.2,2.3,2.2c0.5,0.9,0.8,2,0.8,3.3
			c0,1.2-0.3,2.3-0.8,3.3s-1.3,1.6-2.3,2.2c-1,0.5-2.1,0.8-3.4,0.8H86.3z"/>
		<path class="st7" d="M108.1,561.6c-2,0-3.6-0.5-4.7-1.6c-1.1-1.1-1.7-2.6-1.7-4.6v-2.4c0-2,0.6-3.5,1.7-4.6
			c1.1-1.1,2.7-1.6,4.7-1.6s3.6,0.5,4.7,1.6c1.1,1.1,1.7,2.6,1.7,4.6v2.4c0,2-0.6,3.5-1.7,4.6C111.7,561,110.1,561.6,108.1,561.6z
			 M108.1,558.9c1.1,0,1.9-0.3,2.5-0.9c0.6-0.6,0.9-1.5,0.9-2.6v-2.4c0-1.1-0.3-2-0.9-2.6c-0.6-0.6-1.4-0.9-2.5-0.9
			c-1.1,0-1.9,0.3-2.5,0.9s-0.9,1.5-0.9,2.6v2.4c0,1.1,0.3,2,0.9,2.6C106.2,558.6,107,558.9,108.1,558.9z"/>
		<path class="st7" d="M118.8,561.4v-14.4h3.1v14.4H118.8z M127.4,550.4c-0.3-0.3-0.6-0.5-1-0.7c-0.4-0.2-0.9-0.2-1.4-0.2
			c-1,0-1.7,0.2-2.3,0.7c-0.5,0.5-0.8,1.2-0.8,2.1l-0.3-2.8c0.5-0.9,1.1-1.5,1.8-2c0.8-0.5,1.6-0.7,2.5-0.7c0.7,0,1.3,0.1,1.9,0.3
			c0.6,0.2,1.1,0.5,1.5,0.8L127.4,550.4z"/>
		<path class="st7" d="M130.7,549.5v-2.6h7v2.6H130.7z M135.9,561.4c-1.3,0-2.2-0.3-2.8-1c-0.6-0.7-0.9-1.6-0.9-2.8v-14.9h3.1v14.9
			c0,0.3,0.1,0.6,0.2,0.8c0.1,0.2,0.4,0.3,0.7,0.3h1.5v2.7H135.9z"/>
		<path class="st7" d="M146.9,561.6c-1.9,0-3.3-0.4-4.3-1.1c-1-0.7-1.4-1.9-1.4-3.4c0-1.4,0.4-2.5,1.3-3.2s2.2-1.1,3.9-1.1h4.4
			l0.2,2.3h-4.6c-0.8,0-1.4,0.2-1.8,0.5c-0.4,0.3-0.6,0.8-0.6,1.5c0,0.7,0.3,1.3,0.8,1.6c0.5,0.4,1.3,0.5,2.4,0.5
			c1.2,0,2-0.1,2.6-0.3c0.6-0.2,0.9-0.6,0.9-1.1l0.3,2c-0.3,0.4-0.6,0.7-1,1c-0.4,0.3-0.9,0.4-1.4,0.6
			C148.1,561.5,147.5,561.6,146.9,561.6z M150.7,561.4v-9.2c0-0.9-0.3-1.7-0.8-2.2c-0.5-0.5-1.3-0.8-2.3-0.8c-0.6,0-1.2,0.1-1.8,0.3
			s-1.1,0.4-1.6,0.7l-2.2-1.4c0.6-0.7,1.4-1.2,2.3-1.5c1-0.4,2-0.5,3.2-0.5c1.9,0,3.5,0.5,4.5,1.4c1.1,0.9,1.6,2.3,1.6,4v9.3H150.7z
			"/>
		<path class="st7" d="M161.3,541.1v16.5c0,0.3,0.1,0.6,0.2,0.8c0.2,0.2,0.4,0.3,0.7,0.3h1.4v2.7h-1.8c-1.1,0-2-0.3-2.7-1
			s-1-1.6-1-2.8v-16.5H161.3z"/>
	</g>
	<g id="XMLID_18_" class="st1">
		<path class="st8" d="M-181.9,523.1l-1.7-5.3h-10.7l-1.7,5.3h-7.9l10.6-30.9h8.6l10.6,30.9H-181.9z M-188.9,501.1l-3.4,10.5h6.8
			L-188.9,501.1z"/>
		<path class="st8" d="M-164.2,523.1h-7.2v-22.6c3.2-0.9,6.8-1.3,10.8-1.3h1.5c5.8,0,8.7,2.8,8.7,8.3v15.6h-7.2v-14.9
			c0-2-1-2.9-2.9-2.9h-1c-0.8,0-1.7,0.1-2.8,0.3V523.1z"/>
		<path class="st8" d="M-131.9,523.1v-0.2c-1.1,0.2-2.4,0.3-3.7,0.3h-1.5c-5.8,0-8.7-2.7-8.7-8.2v-7.5c0-5.5,2.9-8.3,8.7-8.3h1.6
			c4,0,7.6,0.4,10.8,1.3v22.7c0,2.9-0.7,5-2.2,6.4c-1.5,1.4-3.8,2.1-7,2.1h-1.2c-3.5,0-6.3-0.2-8.4-0.7V526h8.9c1,0,1.7-0.2,2.2-0.7
			C-132.1,524.9-131.9,524.1-131.9,523.1z M-138.6,508.3v5.9c0,2,1,2.9,2.9,2.9h1.5c0.9,0,1.7-0.1,2.3-0.2v-11.4
			c-0.8-0.2-1.7-0.3-2.8-0.3h-1C-137.6,505.3-138.6,506.3-138.6,508.3z"/>
		<path class="st8" d="M-99.1,507.9v5.9h-13.8v1.3c0,1.1,0.2,1.9,0.7,2.4c0.5,0.5,1.2,0.7,2.2,0.7h9.9v4.7c-2.6,0.4-5.6,0.7-9,0.7
			h-1.7c-3.3,0-5.6-0.7-7.1-2.1c-1.5-1.4-2.2-3.6-2.2-6.4v-7.1c0-2.9,0.7-5,2.2-6.5c1.5-1.4,3.8-2.2,7.1-2.2h2.3
			c3.3,0,5.6,0.7,7.1,2.2C-99.8,502.8-99.1,505-99.1,507.9z M-112.9,507.2v1.8h6.7v-1.1c0-2.1-0.9-3.2-2.6-3.2h-1.5
			c-0.9,0-1.5,0.2-1.9,0.7C-112.7,505.7-112.9,506.4-112.9,507.2z"/>
		<path class="st8" d="M-94.4,491.4h7.2v31.8h-7.2V491.4z"/>
		<path class="st8" d="M-58.9,514.2h-6.6v8.9h-7.6v-30.9h14.2c3.4,0,5.8,0.7,7.4,2.2c1.6,1.5,2.3,3.8,2.3,7.1v3.4
			c0,3.2-0.8,5.6-2.3,7.1C-53.1,513.5-55.6,514.2-58.9,514.2z M-65.5,508.1h5.3c2.3,0,3.4-1.1,3.4-3.3v-2.9c0-2.2-1.1-3.3-3.4-3.3
			h-5.3V508.1z"/>
		<path class="st8" d="M-44.8,514.9v-7.1c0-2.9,0.7-5,2.2-6.5s3.8-2.2,7.1-2.2h3.4c3.3,0,5.6,0.7,7.1,2.2s2.2,3.6,2.2,6.5v7.1
			c0,2.9-0.7,5-2.2,6.4s-3.9,2.1-7.1,2.1h-3.4c-3.2,0-5.6-0.7-7.1-2.1S-44.8,517.8-44.8,514.9z M-29.9,514.7v-6.1
			c0-1.3-0.2-2.3-0.7-2.8c-0.4-0.5-1.2-0.8-2.3-0.8h-1.8c-1.1,0-1.9,0.3-2.3,0.8c-0.4,0.5-0.6,1.5-0.6,2.8v5.6
			c0,1.3,0.2,2.2,0.7,2.8c0.4,0.6,1.2,0.8,2.3,0.8h1.8c1,0,1.8-0.2,2.2-0.7S-29.9,515.8-29.9,514.7z"/>
		<path class="st8" d="M-9.7,499.2h0.8c2.7,0,5.1,0.2,7.4,0.6v5.1h-6.8c-1.8,0-2.7,0.9-2.7,2.7v15.4h-7.2v-15.8
			C-18.2,502-15.4,499.2-9.7,499.2z"/>
		<path class="st8" d="M14.1,517.8H19v5.1c-1.9,0.4-3.9,0.6-6,0.6h-1.8c-2.1,0-3.8-0.6-5-1.9c-1.2-1.3-1.8-2.9-1.8-5.1v-11.2H0.6
			v-5.8h3.7v-6.1h7.2v6.1h7.3v5.8h-7.3v9.8C11.5,516.9,12.4,517.8,14.1,517.8z"/>
		<path class="st8" d="M43.5,507.5v15c-3.1,0.6-6.7,1-10.5,1h-2.3c-2.5,0-4.5-0.6-5.8-1.7c-1.3-1.2-2-2.8-2-4.9v-1.6
			c0-2.1,0.7-3.8,2-5c1.3-1.2,3.3-1.7,5.8-1.7h1.5c1.4,0,2.8,0.1,4.2,0.3v-1.5c0-1.9-0.9-2.8-2.8-2.8h-8.7v-4.7
			c2.7-0.5,5.7-0.7,8.9-0.7h1.1C40.6,499.2,43.5,502,43.5,507.5z M33.6,513.6h-1.4c-1.5,0-2.3,0.6-2.3,1.9v0.7
			c0,1.3,0.8,1.9,2.3,1.9h1.6c1.1,0,2-0.1,2.5-0.2v-4.2C35.6,513.7,34.7,513.6,33.6,513.6z"/>
		<path class="st8" d="M48.7,491.4h7.2v31.8h-7.2V491.4z"/>
		<path class="st8" d="M84.2,514.2h-6.6v8.9h-7.6v-30.9h14.2c3.4,0,5.8,0.7,7.4,2.2c1.6,1.5,2.3,3.8,2.3,7.1v3.4
			c0,3.2-0.8,5.6-2.3,7.1C90.1,513.5,87.6,514.2,84.2,514.2z M77.7,508.1h5.3c2.3,0,3.4-1.1,3.4-3.3v-2.9c0-2.2-1.1-3.3-3.4-3.3
			h-5.3V508.1z"/>
		<path class="st8" d="M109.3,514.4l4.9-14.7h7.2l-8.1,23.5h-8.1l-8.1-23.5h7.2L109.3,514.4z"/>
		<path class="st8" d="M136.9,517.8h4.9v5.1c-1.9,0.4-3.9,0.6-6,0.6H134c-2.1,0-3.8-0.6-5-1.9c-1.2-1.3-1.8-2.9-1.8-5.1v-11.2h-3.7
			v-5.8h3.7v-6.1h7.2v6.1h7.3v5.8h-7.3v9.8C134.4,516.9,135.2,517.8,136.9,517.8z"/>
		<path class="st8" d="M155,492.2h7.6v24.5h13.2v6.4H155V492.2z"/>
		<path class="st8" d="M189.9,517.8h4.9v5.1c-1.9,0.4-3.9,0.6-6,0.6H187c-2.1,0-3.8-0.6-5-1.9c-1.2-1.3-1.8-2.9-1.8-5.1v-11.2h-3.7
			v-5.8h3.7v-6.1h7.2v6.1h7.3v5.8h-7.3v9.8C187.3,516.9,188.2,517.8,189.9,517.8z"/>
		<path class="st8" d="M219.4,491.4v30.9c-3.1,0.9-6.7,1.3-10.8,1.3H207c-5.8,0-8.7-2.7-8.7-8.2v-7.8c0-5.5,2.9-8.3,8.7-8.3h1.5
			c0.9,0,2.1,0.1,3.7,0.4v-8.2H219.4z M205.5,508.3v6.3c0,2,1,2.9,2.9,2.9h0.8c1,0,2-0.1,3-0.2v-11.7c-0.9-0.2-1.8-0.3-2.9-0.3h-0.9
			C206.5,505.3,205.5,506.3,205.5,508.3z"/>
	</g>
</g>
<g id="Layer_3">
	<g id="XMLID_42_">
		<path id="XMLID_64_" class="st2" d="M38.4,8.2c0,0,13.6,9,32.5,11.8c0,0,15.9,3.4,22,4.1c0,0,20.8,2.6,25.3,10.5
			c0,0,4.4,5.5,6.3,15.5c0,0,1.4-1.6,1.7-5.5c0,0,0-5.2,6.1-5.1c0,0,1.7-0.1,2.5,2.7c0,0,0.5,2.2,3,3.6c0,0,0.2,0.6-0.9,0.8
			c0,0-0.3,0.5,0.3,0.8c0,0,0.3,0-0.4,0.5c0,0-0.1,0.2,0.5,0.2c0,0,0.3-0.1-0.2,0.5c0,0-0.2,0.3,0.7,0.4c0,0,0.3,1.1-1.5,1.4
			c0,0-4.6-0.1-6.4,5.4c0,0-0.9,3.3-1,5.6c0,0,0.6,4.4-7.9,4.9c0,0-4.5-0.2-15.8,3.8c0,0-12.9,4-19.9,5.5c0,0-5,2.2-3.1-1.3
			c0,0,0.5-0.7,0.3-4.3c0,0-5.1-0.1-6.3-0.3c0,0-1.5,0.3-3.6-0.9c0,0-8.4-3.3-12.7-4c0,0-4.2-1-6.4-1.3c0,0-4.8-0.3-7.1-1.7
			c0,0-0.9-0.9,0.9-1c0,0,3.8,0.8,6-0.3c0,0,1.7-1.8,3-0.9c0,0,1.3,1.8,2.7,2.6l8.2,0.4c0,0,0.3-0.1-1-0.7l-6.7-3.6
			c0,0-0.9-0.7-4.4-1l-4.4-0.4c0,0-1.1-0.3-0.2-0.9c0,0,2.2,0.3,5.7-1.5c0,0,3-2.7,3.7-0.6c0,0,0,2.3,3.6,3.3l9.2,3.1
			c0,0,1.9,0.8,3.1,2.2c0,0,1.4,1.5,5,1.1h0.6c0,0-0.5-0.9-0.6-2.2c0,0-0.7-3.5,2.1-2.9l17.6,3.2c0,0,4.8,1.3,9-0.4c0,0,3-1,3.3-1.2
			c0,0-4,1.2-8.1,0.9c0,0-8.6,0.6-25.3-11.1c0,0-14.6-8.6-17.9-12.5c0,0,13.6,6.2,18.2,7c0,0,9.7,3.4,20.4,4.8c0,0,6.1,1.4,13.4-0.9
			c0,0-7.3,1.1-14.3-0.2c0,0-10.4-1.2-25.2-7.5c0,0-11.7-5-21.9-13.6c0,0-3.6-3.1-6.7-7.3c0,0,10,6.9,26.1,10.9
			c0,0,7.5,2.4,20.4,4.8c0,0,4.6,1,10.1,0.7c0,0-8.6-1.5-11.4-2.2c-2.8-0.6-8.9-1.8-16.8-4.2c0,0-6.1-1.1-21-9.2
			C52.9,20.4,42.2,14.3,38.4,8.2z"/>
		<linearGradient id="XMLID_79_" gradientUnits="userSpaceOnUse" x1="55.3956" y1="41.0445" x2="107.2013" y2="25.6404">
			<stop  offset="0" style="stop-color:#00283B"/>
			<stop  offset="0.54" style="stop-color:#00273A"/>
			<stop  offset="0.8" style="stop-color:#00A2D5"/>
			<stop  offset="1" style="stop-color:#00A2D5"/>
		</linearGradient>
		<path id="XMLID_63_" class="st22" d="M113.7,48.1c0,0-7.3,1.1-14.3-0.2c0,0-10.4-1.2-25.2-7.5c0,0-11.7-5-21.9-13.6
			c0,0-3.6-3.1-6.7-7.3c0,0,10,6.9,26.1,10.9c0,0,7.5,2.4,20.4,4.8c0,0,4.6,1,10.1,0.7c5.5-0.3,8.1,1.1,12,4.3
			C118.1,43.4,113.7,48.1,113.7,48.1z"/>
		<linearGradient id="XMLID_80_" gradientUnits="userSpaceOnUse" x1="50.1771" y1="32.362" x2="107.5561" y2="13.6115">
			<stop  offset="0" style="stop-color:#00283B"/>
			<stop  offset="0.37" style="stop-color:#00283B"/>
			<stop  offset="0.72" style="stop-color:#00A2D5"/>
			<stop  offset="1" style="stop-color:#00A2D5"/>
		</linearGradient>
		<path id="XMLID_62_" class="st23" d="M102.1,35.9c0,0-8.6-1.5-11.4-2.2c-2.8-0.6-8.9-1.8-16.8-4.2c0,0-6.1-1.1-21-9.2
			c0,0-10.7-6-14.5-12.2c0,0,13.6,9,32.5,11.8c0,0,15.9,3.4,22,4.1c0,0,20.8,2.6,25.3,10.5c4.4,7.9-10.4,1.5-10.4,1.5
			S105.8,35.1,102.1,35.9z"/>
		<path id="XMLID_59_" class="st5" d="M129,35.4c-3.2,0.4-5.8,1.1-5.7,1.5c0.1,0.5,2.7,0.5,5.9,0.1c3.2-0.4,5.8-1.1,5.7-1.5
			C134.9,35.1,132.2,35,129,35.4L129,35.4z M129.1,36.7L129.1,36.7c-2.5,0.3-4.5,0.3-4.6,0.1c0-0.2,2-0.7,4.4-1
			c2.5-0.3,4.5-0.3,4.6-0.1C133.5,36,131.6,36.5,129.1,36.7z"/>
		<linearGradient id="XMLID_81_" gradientUnits="userSpaceOnUse" x1="73.674" y1="55.6057" x2="110.6569" y2="39.4329">
			<stop  offset="0" style="stop-color:#002637"/>
			<stop  offset="0.5" style="stop-color:#002E42"/>
			<stop  offset="0.82" style="stop-color:#00A2D5"/>
			<stop  offset="1" style="stop-color:#00A2D5"/>
		</linearGradient>
		<path id="XMLID_58_" class="st24" d="M113,60c0,0-4,1.2-8.1,0.9c0,0-8.6,0.6-25.3-11.1c0,0-14.6-8.6-17.9-12.5
			c0,0,13.6,6.2,18.2,7c0,0,9.7,3.4,20.4,4.8c0,0,6.1,1.4,13.4-0.9c7.3-2.3,6.8,8.8,6.8,8.8S119.2,61.6,113,60z"/>
	</g>
	<g>
		<path class="st7" d="M21.1,116.8c-0.5,0-1-0.1-1.4-0.3c-0.4-0.2-0.8-0.5-1.1-0.8l1.1-0.7c0.1,0.2,0.3,0.4,0.5,0.5
			c0.2,0.1,0.5,0.2,0.8,0.2c0.5,0,0.9-0.2,1.2-0.5c0.3-0.3,0.4-0.7,0.4-1.3v-6.2h1.4v6.2c0,0.9-0.3,1.7-0.8,2.2
			C22.8,116.5,22.1,116.8,21.1,116.8z"/>
		<path class="st7" d="M29.1,116.8c-0.9,0-1.6-0.2-2.1-0.7c-0.5-0.5-0.8-1.2-0.8-2.1v-1.1c0-0.9,0.3-1.6,0.8-2.1
			c0.5-0.5,1.2-0.7,2.1-0.7c0.9,0,1.6,0.2,2.1,0.7c0.5,0.5,0.8,1.2,0.8,2.1v1.1c0,0.9-0.3,1.6-0.8,2.1
			C30.7,116.5,30,116.8,29.1,116.8z M29.1,115.6c0.5,0,0.8-0.1,1.1-0.4c0.3-0.3,0.4-0.7,0.4-1.2v-1.1c0-0.5-0.1-0.9-0.4-1.2
			c-0.3-0.3-0.6-0.4-1.1-0.4c-0.5,0-0.8,0.1-1.1,0.4c-0.3,0.3-0.4,0.7-0.4,1.2v1.1c0,0.5,0.1,0.9,0.4,1.2
			C28.2,115.4,28.6,115.6,29.1,115.6z"/>
		<path class="st7" d="M33.9,116.7v-9.1h1.4v9.1H33.9z M37,116.8c-0.4,0-0.8-0.1-1.1-0.3c-0.3-0.2-0.6-0.5-0.7-0.8l0.1-1.4
			c0,0.3,0.1,0.5,0.2,0.7c0.1,0.2,0.3,0.3,0.5,0.4c0.2,0.1,0.4,0.2,0.7,0.2c0.5,0,0.8-0.1,1-0.4c0.2-0.3,0.4-0.6,0.4-1.1v-1.4
			c0-0.5-0.1-0.8-0.4-1.1c-0.2-0.3-0.6-0.4-1-0.4c-0.3,0-0.5,0-0.7,0.1c-0.2,0.1-0.4,0.2-0.5,0.4c-0.1,0.2-0.2,0.4-0.2,0.7l-0.1-1.2
			c0.2-0.4,0.5-0.7,0.8-0.9c0.3-0.2,0.7-0.3,1.1-0.3c0.7,0,1.3,0.2,1.7,0.7c0.4,0.5,0.6,1.1,0.6,1.9v1.4c0,0.8-0.2,1.5-0.6,1.9
			C38.4,116.6,37.8,116.8,37,116.8z"/>
		<path class="st7" d="M47.9,112.7c-0.6,0-1,0.1-1.3,0.4c-0.3,0.3-0.5,0.6-0.5,1.1c0,0.5,0.2,0.8,0.5,1.1c0.3,0.3,0.8,0.4,1.4,0.4
			c0.8,0,1.5-0.3,2-0.9c0.5-0.6,0.7-1.5,0.7-2.6H52c0,1-0.2,1.8-0.5,2.5c-0.3,0.7-0.8,1.2-1.5,1.6c-0.6,0.4-1.4,0.6-2.3,0.6
			c-0.9,0-1.6-0.2-2.1-0.7c-0.5-0.5-0.8-1.1-0.8-1.9c0-0.7,0.2-1.3,0.7-1.8c0.4-0.4,1.1-0.7,1.9-0.8L47.9,112.7z M51,116.7l-3.7-3.6
			c-0.5-0.4-0.8-0.9-1.1-1.4c-0.3-0.5-0.4-1-0.4-1.6c0-0.8,0.2-1.4,0.7-1.8c0.5-0.4,1.1-0.7,1.9-0.7c0.8,0,1.5,0.2,1.9,0.6
			c0.5,0.4,0.7,1,0.7,1.8v0.1h-1.4V110c0-0.4-0.1-0.7-0.3-0.9c-0.2-0.2-0.5-0.3-0.9-0.3c-0.4,0-0.7,0.1-0.9,0.3
			c-0.2,0.2-0.3,0.5-0.3,0.9c0,0.4,0.1,0.7,0.3,1.1c0.2,0.4,0.5,0.8,0.8,1.1l4.5,4.4H51z"/>
		<path class="st7" d="M57.8,116.7v-9.1h1.4v9.1H57.8z M58.5,108.8v-1.2h5.6v1.2H58.5z M58.5,112.8v-1.2h4.9v1.2H58.5z M58.5,116.7
			v-1.2h5.6v1.2H58.5z"/>
		<path class="st7" d="M68.1,116.8c-0.8,0-1.4-0.2-1.8-0.7c-0.4-0.5-0.6-1.1-0.6-1.9v-1.4c0-0.8,0.2-1.5,0.6-1.9
			c0.4-0.5,1-0.7,1.7-0.7c0.4,0,0.8,0.1,1.1,0.3s0.6,0.5,0.8,0.8l-0.1,1.3c0-0.3-0.1-0.5-0.2-0.7c-0.1-0.2-0.3-0.3-0.5-0.4
			c-0.2-0.1-0.4-0.2-0.7-0.2c-0.5,0-0.8,0.1-1,0.4c-0.2,0.3-0.4,0.6-0.4,1.1v1.4c0,0.5,0.1,0.8,0.4,1.1c0.2,0.3,0.6,0.4,1,0.4
			c0.3,0,0.5-0.1,0.7-0.2c0.2-0.1,0.4-0.3,0.5-0.5c0.1-0.2,0.2-0.4,0.2-0.7l0.1,1.4c-0.1,0.3-0.3,0.6-0.6,0.8
			C69,116.7,68.6,116.8,68.1,116.8z M69.8,116.7v-9.1h1.4v9.1H69.8z"/>
		<path class="st7" d="M74.6,110.2v3.9c0,0.5,0.1,0.8,0.4,1c0.2,0.2,0.6,0.4,1,0.4c0.5,0,0.8-0.1,1-0.3c0.2-0.2,0.4-0.5,0.4-0.9
			l0.1,1.4c-0.1,0.3-0.3,0.6-0.7,0.8c-0.3,0.2-0.7,0.3-1.2,0.3c-0.8,0-1.4-0.2-1.8-0.7c-0.4-0.5-0.6-1.1-0.6-1.9v-3.9H74.6z
			 M77.5,116.7v-6.5h1.4v6.5H77.5z"/>
		<path class="st7" d="M83.7,116.8c-1,0-1.7-0.2-2.2-0.7c-0.5-0.5-0.8-1.2-0.8-2.1v-1.1c0-0.9,0.3-1.6,0.8-2.1
			c0.5-0.5,1.3-0.7,2.2-0.7c0.5,0,1,0.1,1.5,0.3c0.4,0.2,0.8,0.4,1,0.8l-1,0.8c-0.2-0.2-0.4-0.4-0.7-0.5c-0.3-0.1-0.5-0.2-0.8-0.2
			c-0.5,0-0.9,0.1-1.2,0.4c-0.3,0.3-0.4,0.7-0.4,1.2v1.1c0,0.5,0.1,0.9,0.4,1.2c0.3,0.3,0.7,0.4,1.2,0.4c0.3,0,0.6-0.1,0.8-0.2
			c0.3-0.1,0.5-0.3,0.7-0.5l1,0.9c-0.3,0.3-0.6,0.6-1,0.8C84.7,116.7,84.2,116.8,83.7,116.8z"/>
		<path class="st7" d="M90,116.8c-0.9,0-1.5-0.2-1.9-0.5c-0.4-0.3-0.6-0.8-0.6-1.5c0-0.6,0.2-1.1,0.6-1.4c0.4-0.3,1-0.5,1.8-0.5h2
			l0.1,1h-2.1c-0.4,0-0.6,0.1-0.8,0.2c-0.2,0.1-0.3,0.4-0.3,0.7c0,0.3,0.1,0.6,0.4,0.7c0.2,0.2,0.6,0.2,1.1,0.2
			c0.5,0,0.9-0.1,1.2-0.2c0.3-0.1,0.4-0.3,0.4-0.5l0.1,0.9c-0.1,0.2-0.3,0.3-0.4,0.4c-0.2,0.1-0.4,0.2-0.6,0.3
			C90.5,116.8,90.2,116.8,90,116.8z M91.7,116.7v-4.1c0-0.4-0.1-0.8-0.4-1c-0.2-0.2-0.6-0.4-1-0.4c-0.3,0-0.5,0-0.8,0.1
			c-0.3,0.1-0.5,0.2-0.7,0.3l-1-0.6c0.3-0.3,0.6-0.5,1-0.7c0.4-0.2,0.9-0.2,1.4-0.2c0.9,0,1.5,0.2,2,0.6c0.5,0.4,0.7,1,0.7,1.8v4.2
			H91.7z"/>
		<path class="st7" d="M94.5,111.4v-1.1h3.1v1.1H94.5z M96.8,116.7c-0.6,0-1-0.1-1.2-0.4c-0.3-0.3-0.4-0.7-0.4-1.3v-6.7h1.4v6.7
			c0,0.2,0,0.3,0.1,0.4c0.1,0.1,0.2,0.1,0.3,0.1h0.7v1.2H96.8z"/>
		<path class="st7" d="M99.5,108.9v-1.3h1.4v1.3H99.5z M99.5,116.7v-6.5h1.4v6.5H99.5z"/>
		<path class="st7" d="M105.6,116.8c-0.9,0-1.6-0.2-2.1-0.7c-0.5-0.5-0.8-1.2-0.8-2.1v-1.1c0-0.9,0.3-1.6,0.8-2.1
			c0.5-0.5,1.2-0.7,2.1-0.7c0.9,0,1.6,0.2,2.1,0.7c0.5,0.5,0.8,1.2,0.8,2.1v1.1c0,0.9-0.3,1.6-0.8,2.1
			C107.2,116.5,106.5,116.8,105.6,116.8z M105.6,115.6c0.5,0,0.8-0.1,1.1-0.4c0.3-0.3,0.4-0.7,0.4-1.2v-1.1c0-0.5-0.1-0.9-0.4-1.2
			c-0.3-0.3-0.6-0.4-1.1-0.4c-0.5,0-0.8,0.1-1.1,0.4c-0.3,0.3-0.4,0.7-0.4,1.2v1.1c0,0.5,0.1,0.9,0.4,1.2S105.1,115.6,105.6,115.6z"
			/>
		<path class="st7" d="M110.4,116.7v-6.5h1.4v6.5H110.4z M114.6,116.7v-3.9c0-0.5-0.1-0.8-0.4-1.1s-0.6-0.4-1.1-0.4
			c-0.4,0-0.8,0.1-1,0.3c-0.2,0.2-0.4,0.5-0.4,0.9l-0.1-1.2c0.2-0.4,0.5-0.7,0.8-0.9c0.3-0.2,0.7-0.3,1.1-0.3c0.8,0,1.3,0.2,1.8,0.7
			c0.4,0.5,0.6,1.1,0.6,1.9v3.9H114.6z"/>
		<path class="st7" d="M121.9,116.7v-9.1h1.4v9.1H121.9z M122.6,113.2V112h3.1c0.4,0,0.8-0.1,1.1-0.4c0.3-0.3,0.4-0.7,0.4-1.1
			c0-0.5-0.1-0.9-0.4-1.1c-0.3-0.3-0.6-0.4-1.1-0.4h-3.1v-1.2h3.1c0.6,0,1.1,0.1,1.5,0.3c0.4,0.2,0.8,0.6,1,1
			c0.2,0.4,0.4,0.9,0.4,1.5c0,0.6-0.1,1-0.4,1.5c-0.2,0.4-0.6,0.7-1,1c-0.4,0.2-1,0.3-1.5,0.3H122.6z"/>
		<path class="st7" d="M132.4,116.8c-0.9,0-1.6-0.2-2.1-0.7c-0.5-0.5-0.8-1.2-0.8-2.1v-1.1c0-0.9,0.3-1.6,0.8-2.1
			c0.5-0.5,1.2-0.7,2.1-0.7s1.6,0.2,2.1,0.7c0.5,0.5,0.8,1.2,0.8,2.1v1.1c0,0.9-0.3,1.6-0.8,2.1C134,116.5,133.3,116.8,132.4,116.8z
			 M132.4,115.6c0.5,0,0.8-0.1,1.1-0.4c0.3-0.3,0.4-0.7,0.4-1.2v-1.1c0-0.5-0.1-0.9-0.4-1.2c-0.3-0.3-0.6-0.4-1.1-0.4
			c-0.5,0-0.8,0.1-1.1,0.4c-0.3,0.3-0.4,0.7-0.4,1.2v1.1c0,0.5,0.1,0.9,0.4,1.2S131.9,115.6,132.4,115.6z"/>
		<path class="st7" d="M137.2,116.7v-6.5h1.4v6.5H137.2z M141,111.8c-0.1-0.1-0.3-0.2-0.5-0.3c-0.2-0.1-0.4-0.1-0.6-0.1
			c-0.4,0-0.8,0.1-1,0.3c-0.2,0.2-0.4,0.5-0.4,0.9l-0.1-1.2c0.2-0.4,0.5-0.7,0.8-0.9c0.3-0.2,0.7-0.3,1.1-0.3c0.3,0,0.6,0,0.9,0.1
			s0.5,0.2,0.7,0.4L141,111.8z"/>
		<path class="st7" d="M142.5,111.4v-1.1h3.1v1.1H142.5z M144.9,116.7c-0.6,0-1-0.1-1.2-0.4c-0.3-0.3-0.4-0.7-0.4-1.3v-6.7h1.4v6.7
			c0,0.2,0,0.3,0.1,0.4c0.1,0.1,0.2,0.1,0.3,0.1h0.7v1.2H144.9z"/>
		<path class="st7" d="M149.7,116.8c-0.9,0-1.5-0.2-1.9-0.5c-0.4-0.3-0.6-0.8-0.6-1.5c0-0.6,0.2-1.1,0.6-1.4c0.4-0.3,1-0.5,1.8-0.5
			h2l0.1,1h-2.1c-0.4,0-0.6,0.1-0.8,0.2c-0.2,0.1-0.3,0.4-0.3,0.7c0,0.3,0.1,0.6,0.4,0.7c0.2,0.2,0.6,0.2,1.1,0.2
			c0.5,0,0.9-0.1,1.2-0.2c0.3-0.1,0.4-0.3,0.4-0.5l0.1,0.9c-0.1,0.2-0.3,0.3-0.4,0.4c-0.2,0.1-0.4,0.2-0.6,0.3
			C150.3,116.8,150,116.8,149.7,116.8z M151.4,116.7v-4.1c0-0.4-0.1-0.8-0.4-1c-0.2-0.2-0.6-0.4-1-0.4c-0.3,0-0.5,0-0.8,0.1
			c-0.3,0.1-0.5,0.2-0.7,0.3l-1-0.6c0.3-0.3,0.6-0.5,1-0.7c0.4-0.2,0.9-0.2,1.4-0.2c0.9,0,1.5,0.2,2,0.6c0.5,0.4,0.7,1,0.7,1.8v4.2
			H151.4z"/>
		<path class="st7" d="M156.2,107.6v7.4c0,0.2,0,0.3,0.1,0.4c0.1,0.1,0.2,0.1,0.3,0.1h0.6v1.2h-0.8c-0.5,0-0.9-0.1-1.2-0.4
			c-0.3-0.3-0.4-0.7-0.4-1.3v-7.4H156.2z"/>
	</g>
	<g>
		<path class="st8" d="M22.4,99.6l-0.7-2.4h-4.8l-0.7,2.4h-3.5l4.8-13.8h3.8l4.8,13.8H22.4z M19.3,89.7l-1.5,4.7h3L19.3,89.7z"/>
		<path class="st8" d="M30.3,99.6h-3.2V89.5c1.4-0.4,3-0.6,4.8-0.6h0.7c2.6,0,3.9,1.2,3.9,3.7v7h-3.2v-6.7c0-0.9-0.4-1.3-1.3-1.3
			h-0.4c-0.3,0-0.8,0-1.2,0.1V99.6z"/>
		<path class="st8" d="M44.8,99.5L44.8,99.5c-0.5,0-1.1,0-1.7,0h-0.7c-2.6,0-3.9-1.2-3.9-3.7v-3.3c0-2.5,1.3-3.7,3.9-3.7h0.7
			c1.8,0,3.4,0.2,4.8,0.6v10.1c0,1.3-0.3,2.2-1,2.9c-0.7,0.6-1.7,0.9-3.1,0.9h-0.6c-1.5,0-2.8-0.1-3.8-0.3v-2.3h4
			c0.4,0,0.8-0.1,1-0.3C44.7,100.4,44.8,100,44.8,99.5z M41.8,92.9v2.7c0,0.9,0.4,1.3,1.3,1.3h0.7c0.4,0,0.7,0,1-0.1v-5.1
			c-0.4-0.1-0.8-0.1-1.2-0.1h-0.5C42.2,91.6,41.8,92,41.8,92.9z"/>
		<path class="st8" d="M59.5,92.7v2.7h-6.2V96c0,0.5,0.1,0.9,0.3,1.1c0.2,0.2,0.5,0.3,1,0.3H59v2.1c-1.2,0.2-2.5,0.3-4,0.3h-0.7
			c-1.5,0-2.5-0.3-3.2-1c-0.7-0.6-1-1.6-1-2.9v-3.2c0-1.3,0.3-2.3,1-2.9c0.7-0.6,1.7-1,3.2-1h1c1.5,0,2.5,0.3,3.2,1
			C59.1,90.5,59.5,91.4,59.5,92.7z M53.3,92.4v0.8h3v-0.5c0-0.9-0.4-1.4-1.2-1.4h-0.7c-0.4,0-0.7,0.1-0.9,0.3
			C53.4,91.8,53.3,92.1,53.3,92.4z"/>
		<path class="st8" d="M61.6,85.3h3.2v14.2h-3.2V85.3z"/>
		<path class="st8" d="M73.7,99.7h-0.5c-1.2,0-2.2-0.1-3-0.4v-2.5h3c1.2,0,1.8-0.6,1.8-1.9v-9.3h3.4v9.3c0,1.6-0.4,2.8-1.1,3.6
			C76.5,99.4,75.3,99.7,73.7,99.7z"/>
		<path class="st8" d="M80.6,95.9v-3.2c0-1.3,0.3-2.3,1-2.9c0.7-0.6,1.7-1,3.2-1h1.5c1.5,0,2.5,0.3,3.2,1c0.7,0.6,1,1.6,1,2.9v3.2
			c0,1.3-0.3,2.2-1,2.9s-1.7,1-3.2,1h-1.5c-1.4,0-2.5-0.3-3.2-1S80.6,97.2,80.6,95.9z M87.3,95.8v-2.7c0-0.6-0.1-1-0.3-1.3
			c-0.2-0.2-0.5-0.4-1-0.4h-0.8c-0.5,0-0.8,0.1-1,0.4c-0.2,0.2-0.3,0.7-0.3,1.3v2.5c0,0.6,0.1,1,0.3,1.2c0.2,0.2,0.5,0.4,1,0.4h0.8
			c0.5,0,0.8-0.1,1-0.3C87.2,96.6,87.3,96.3,87.3,95.8z"/>
		<path class="st8" d="M95.7,85.3V89c0.7-0.1,1.3-0.2,1.7-0.2h0.6c2.6,0,3.9,1.2,3.9,3.7v3.5c0,2.5-1.3,3.7-3.9,3.7h-0.7
			c-1.8,0-3.4-0.2-4.8-0.6V85.3H95.7z M98.8,95.7v-2.5c0-0.6-0.1-1-0.3-1.3c-0.2-0.3-0.5-0.4-1-0.4h-0.4c-0.5,0-0.9,0-1.3,0.1v5.2
			C96.1,97,96.5,97,97,97h0.5C98.3,97,98.8,96.6,98.8,95.7z"/>
		<path class="st8" d="M107.7,92.9l2.5,0.4c1.5,0.2,2.3,1.3,2.3,3v0.4c0,1-0.3,1.8-0.8,2.3c-0.5,0.5-1.4,0.8-2.7,0.8h-1.2
			c-1.2,0-2.4-0.1-3.5-0.3v-2.2h4.2c0.5,0,0.8-0.2,0.8-0.6v-0.3c0-0.4-0.2-0.6-0.7-0.7l-2.5-0.4c-1.5-0.2-2.3-1.2-2.3-3v-0.3
			c0-1,0.3-1.8,0.8-2.3c0.5-0.5,1.4-0.8,2.7-0.8h1c1.2,0,2.4,0.1,3.5,0.3v2.2h-4c-0.5,0-0.7,0.2-0.7,0.6v0.3
			C107,92.6,107.2,92.8,107.7,92.9z"/>
		<path class="st8" d="M121.9,99.6h-3.4V85.7h3.4V99.6z"/>
		<path class="st8" d="M127.7,99.6h-3.2V89.5c1.4-0.4,3-0.6,4.8-0.6h0.7c2.6,0,3.9,1.2,3.9,3.7v7h-3.2v-6.7c0-0.9-0.4-1.3-1.3-1.3
			H129c-0.3,0-0.8,0-1.2,0.1V99.6z"/>
		<path class="st8" d="M145.4,85.3v13.8c-1.4,0.4-3,0.6-4.8,0.6h-0.7c-2.6,0-3.9-1.2-3.9-3.7v-3.5c0-2.5,1.3-3.7,3.9-3.7h0.7
			c0.4,0,1,0.1,1.7,0.2v-3.7H145.4z M139.2,92.9v2.8c0,0.9,0.4,1.3,1.3,1.3h0.3c0.5,0,0.9,0,1.4-0.1v-5.2c-0.4-0.1-0.8-0.1-1.3-0.1
			h-0.4C139.6,91.6,139.2,92,139.2,92.9z"/>
		<path class="st8" d="M149.3,88c-0.6,0-1-0.2-1.3-0.5c-0.3-0.3-0.5-0.7-0.5-1.2c0-0.5,0.2-0.9,0.5-1.2c0.3-0.3,0.8-0.5,1.3-0.5
			c0.6,0,1,0.2,1.4,0.5c0.3,0.3,0.5,0.7,0.5,1.2c0,0.5-0.2,0.8-0.5,1.2C150.4,87.8,149.9,88,149.3,88z M147.8,99.6V89h3.2v10.5
			H147.8z"/>
		<path class="st8" d="M162.4,92.6v6.7c-1.4,0.3-3,0.4-4.7,0.4h-1c-1.1,0-2-0.3-2.6-0.8c-0.6-0.5-0.9-1.3-0.9-2.2v-0.7
			c0-1,0.3-1.7,0.9-2.2c0.6-0.5,1.5-0.8,2.6-0.8h0.7c0.6,0,1.2,0,1.9,0.1v-0.7c0-0.8-0.4-1.3-1.3-1.3H154v-2.1
			c1.2-0.2,2.6-0.3,4-0.3h0.5C161.1,88.9,162.4,90.1,162.4,92.6z M158,95.3h-0.6c-0.7,0-1,0.3-1,0.9v0.3c0,0.6,0.3,0.9,1,0.9h0.7
			c0.5,0,0.9,0,1.1-0.1v-1.9C158.9,95.3,158.5,95.3,158,95.3z"/>
	</g>
</g>
</svg>
